<svg xmlns="http://www.w3.org/2000/svg" viewBox="0 0 500 500" width="500" height="500" preserveAspectRatio="xMidYMid meet">
  <defs>
    <clipPath id="__lottie_element_47">
      <rect width="500" height="500" x="0" y="0"/>
    </clipPath>
    <clipPath id="__lottie_element_50">
      <path d="M0,0 L500,0 L500,500 L0,500z"/>
    </clipPath>
  </defs>
  
  <g clip-path="url(#__lottie_element_47)">
    <g clip-path="url(#__lottie_element_50)" transform="matrix(0.9, 0, 0, 0.9, 25, 25)" opacity="1">
      <g transform="matrix(3.69, 0, 0, 3.69, -217.49, 249.99)" opacity="1">
        <g opacity="1" transform="matrix(1, 0, 0, 1, 0, 0)">
          <path stroke-linecap="round" stroke-linejoin="round" fill-opacity="0" stroke="rgb(100,8,8)" stroke-opacity="1" stroke-width="2.1" d="M126.67,50 C109.64,50 95.83,27.61 95.83,0 C95.83,-27.61 109.64,-50 126.67,-50"/>
        </g>
      </g>
      <g transform="matrix(3.69, 0, 0, 3.69, -217.49, 249.99)" opacity="1">
        <g opacity="1" transform="matrix(1, 0, 0, 1, 0, 0)">
          <path stroke-linecap="round" stroke-linejoin="round" fill-opacity="0" stroke="rgb(100,8,8)" stroke-opacity="1" stroke-width="2.1" d="M126.67,50 C126.75,41.25 126.83,27.61 126.83,0 C126.83,-27.61 126.75,-34.25 126.67,-50"/>
        </g>
      </g>
      <g transform="matrix(3.69, 0, 0, 3.69, -217.49, 249.99)" opacity="1">
        <g opacity="1" transform="matrix(1, 0, 0, 1, 0, 0)">
          <path stroke-linecap="round" stroke-linejoin="round" fill-opacity="0" stroke="rgb(100,8,8)" stroke-opacity="1" stroke-width="2.1" d="M126.67,50 C144.25,50 158.5,27.61 158.5,0 C158.5,-27.61 144.25,-50 126.67,-50"/>
        </g>
      </g>
      <g transform="matrix(3.69, 0, 0, 3.69, -217.49, 249.99)" opacity="1">
        <g opacity="1" transform="matrix(1, 0, 0, 1, 0, 0)">
          <path stroke-linecap="round" stroke-linejoin="round" fill-opacity="0" stroke="rgb(100,8,8)" stroke-opacity="1" stroke-width="2.1" d="M126.67,50 C146.88,50 176.93,34.47 176.93,0 C176.93,-34.97 143.95,-50 126.67,-50"/>
        </g>
      </g>
      <g transform="matrix(3.69, 0, 0, 3.69, -217.49, 249.99)" opacity="1">
        <g opacity="1" transform="matrix(1, 0, 0, 1, 0, 0)">
          <path stroke-linecap="round" stroke-linejoin="round" fill-opacity="0" stroke="rgb(100,8,8)" stroke-opacity="1" stroke-width="2.1" d="M126.67,50 C109.01,50 91.75,29.11 91.75,0 C91.75,-29.22 109.64,-50 126.67,-50"/>
        </g>
      </g>
      <g transform="matrix(3.69, 0, 0, 3.69, -217.49, 249.99)" opacity="1">
        <g opacity="1" transform="matrix(1, 0, 0, 1, 0, 0)">
          <path stroke-linecap="round" stroke-linejoin="round" fill-opacity="0" stroke="rgb(100,8,8)" stroke-opacity="1" stroke-width="2.1" d="M126.67,50 C123.03,43.15 120.09,27.61 120.09,0 C120.09,-27.61 123.03,-37.68 126.67,-50"/>
        </g>
      </g>
      <g transform="matrix(3.69, 0, 0, 3.69, -217.49, 249.99)" opacity="1">
        <g opacity="1" transform="matrix(1, 0, 0, 1, 0, 0)">
          <path stroke-linecap="round" stroke-linejoin="round" fill-opacity="0" stroke="rgb(100,8,8)" stroke-opacity="1" stroke-width="2.1" d="M126.67,50 C140.44,48.1 151.61,27.61 151.61,0 C151.61,-27.61 140.44,-46.57 126.67,-50"/>
        </g>
      </g>
      <g transform="matrix(3.69, 0, 0, 3.69, -217.49, 249.99)" opacity="1">
        <g opacity="1" transform="matrix(1, 0, 0, 1, 0, 0)">
          <path stroke-linecap="round" stroke-linejoin="round" fill-opacity="0" stroke="rgb(100,8,8)" stroke-opacity="1" stroke-width="2.1" d="M126.67,50 C146.08,50 172.39,33.00 172.39,0 C172.39,-33.39 143.82,-50 126.67,-50"/>
        </g>
      </g>
      <g transform="matrix(3.69, 0, 0, 3.69, -217.49, 249.99)" opacity="1">
        <g opacity="1" transform="matrix(1, 0, 0, 1, 0, 0)">
          <path stroke-linecap="round" stroke-linejoin="round" fill-opacity="0" stroke="rgb(100,8,8)" stroke-opacity="1" stroke-width="2.1" d="M126.67,50 C146.36,50 174.56,33.85 174.56,0 C174.56,-34.3 143.75,-50 126.67,-50"/>
        </g>
      </g>
      <g transform="matrix(3.69, 0, 0, 3.69, -217.49, 249.99)" opacity="1">
        <g opacity="1" transform="matrix(1, 0, 0, 1, 0, 0)">
          <path stroke-linecap="round" stroke-linejoin="round" fill-opacity="0" stroke="rgb(100,8,8)" stroke-opacity="1" stroke-width="2.1" d="M126.67,50 C146.23,50 173.55,33.45 173.55,0 C173.55,-33.88 143.78,-50 126.67,-50"/>
        </g>
      </g>
      <g transform="matrix(3.69, 0, 0, 3.69, -217.49, 249.99)" opacity="1">
        <g opacity="1" transform="matrix(1, 0, 0, 1, 0, 0)">
          <path stroke-linecap="round" stroke-linejoin="round" fill-opacity="0" stroke="rgb(100,8,8)" stroke-opacity="1" stroke-width="2.1" d="M76.67,0 C76.67,0 176.67,0 176.67,0"/>
        </g>
      </g>
      <g transform="matrix(3.32, 0, 0, 3.32, -170.74, 250)" opacity="1">
        <g opacity="1" transform="matrix(1, 0, 0, 1, 0, 0)">
          <path stroke-linecap="round" stroke-linejoin="round" fill-opacity="0" stroke="rgb(18,19,48)" stroke-opacity="1" stroke-width="2.1" d="M176.67,0 C176.67,27.61 154.28,50 126.67,50 C99.05,50 76.67,27.61 76.67,0 C76.67,-27.61 99.05,-50 126.67,-50 C154.28,-50 176.67,-27.61 176.67,0Z"/>
        </g>
      </g>
    </g>
  </g>
</svg>
