<svg width="184" height="58px" viewBox="0 0 284 38" fill="none" xmlns="http://www.w3.org/2000/svg">

<path d="M119.993 28.5397C117.811 28.5397 116.296 29.8486 116.296 32.3695V36.878C116.296 37.084 116.381 37.1688 116.587 37.1688H117.69C117.896 37.1688 117.993 37.084 117.993 36.878V34.6722C117.993 34.5389 118.029 34.5025 118.163 34.5025H121.798C121.908 34.5025 121.956 34.5389 121.956 34.6722V36.878C121.956 37.084 122.041 37.1688 122.247 37.1688H123.35C123.556 37.1688 123.653 37.084 123.653 36.878V32.3695C123.653 29.8123 122.138 28.5397 119.993 28.5397ZM118.163 32.9391C118.029 32.9391 117.993 32.9027 117.993 32.7694V32.4058C117.993 30.9636 118.708 30.1152 119.968 30.1152C121.241 30.1152 121.956 30.9636 121.956 32.418V32.7694C121.956 32.8785 121.908 32.9391 121.798 32.9391H118.163Z" fill="black"/>
<path d="M134.873 30.2607C135.079 30.2607 135.164 30.1758 135.164 29.9698V28.976C135.164 28.77 135.079 28.6851 134.873 28.6851H128.68C128.474 28.6851 128.389 28.77 128.389 28.976V29.9698C128.389 30.1758 128.474 30.2607 128.68 30.2607H130.764C130.873 30.2607 130.934 30.3092 130.934 30.4182V36.878C130.934 37.084 131.019 37.1688 131.225 37.1688H132.328C132.534 37.1688 132.631 37.084 132.631 36.878V30.4182C132.631 30.3092 132.679 30.2607 132.788 30.2607H134.873Z" fill="black"/>
<path d="M141.355 37.1688C141.561 37.1688 141.658 37.084 141.658 36.878V28.976C141.658 28.77 141.561 28.6851 141.355 28.6851H140.252C140.046 28.6851 139.961 28.77 139.961 28.976V36.878C139.961 37.084 140.046 37.1688 140.252 37.1688H141.355Z" fill="black"/>
<path d="M151.242 28.5397C148.709 28.4912 146.733 30.4546 146.77 32.9633C146.733 35.4478 148.697 37.3506 151.206 37.3143C153.763 37.3627 155.738 35.4236 155.702 32.9149C155.738 30.4303 153.775 28.5033 151.242 28.5397ZM151.218 35.7387C149.691 35.7387 148.527 34.5752 148.527 32.9391C148.527 31.2787 149.703 30.1152 151.23 30.1152C152.745 30.1152 153.945 31.2666 153.945 32.9391C153.945 34.5631 152.733 35.7387 151.218 35.7387Z" fill="black"/>
<path d="M164.279 28.5397C162.097 28.5397 160.582 29.8486 160.582 32.3695V36.878C160.582 37.084 160.667 37.1688 160.873 37.1688H161.976C162.182 37.1688 162.279 37.084 162.279 36.878V32.4058C162.279 30.9636 162.994 30.1152 164.254 30.1152C165.527 30.1152 166.242 30.9636 166.242 32.418V36.878C166.242 37.084 166.327 37.1688 166.533 37.1688H167.636C167.842 37.1688 167.939 37.084 167.939 36.878V32.3695C167.939 29.8123 166.424 28.5397 164.279 28.5397Z" fill="black"/>
<path d="M181.842 37.1688C182.048 37.1688 182.145 37.084 182.145 36.878V30.3576C182.145 30.2243 182.194 30.2001 182.303 30.2001H183.248C184.496 30.2001 185.163 30.6243 185.163 31.5817C185.163 32.4664 184.484 32.9512 183.466 33.0603C183.321 33.0724 183.248 33.1088 183.248 33.1936C183.248 33.2421 183.272 33.3027 183.321 33.3754L185.393 36.8174C185.575 37.1082 185.684 37.1688 185.987 37.1688H187.163C187.357 37.1688 187.454 37.1203 187.454 37.0234C187.454 36.9749 187.417 36.9022 187.357 36.7931L185.393 33.6784C186.363 33.2784 186.932 32.5392 186.932 31.4363C186.932 29.5941 185.745 28.6851 183.309 28.6851H180.739C180.533 28.6851 180.448 28.77 180.448 28.976V36.878C180.448 37.084 180.533 37.1688 180.739 37.1688H181.842Z" fill="black"/>
<path d="M193.526 37.1688C193.732 37.1688 193.829 37.084 193.829 36.878V28.976C193.829 28.77 193.732 28.6851 193.526 28.6851H192.423C192.217 28.6851 192.132 28.77 192.132 28.976V36.878C192.132 37.084 192.217 37.1688 192.423 37.1688H193.526Z" fill="black"/>
<path d="M206.6 36.5265C206.794 36.4295 206.855 36.3326 206.855 36.1023V33.3148C206.855 33.1088 206.77 33.0239 206.564 33.0239H205.449C205.243 33.0239 205.158 33.1088 205.158 33.3148V35.2297C205.158 35.3751 205.134 35.4236 204.988 35.4842C204.552 35.666 204.031 35.7508 203.413 35.7508C201.886 35.7508 200.698 34.6116 200.698 32.9512C200.698 31.303 201.813 30.1152 203.473 30.1152C204.261 30.1152 205.013 30.3455 205.74 30.7939C205.825 30.8424 205.897 30.8667 205.958 30.8667C206.043 30.8667 206.115 30.8182 206.188 30.7091L206.673 29.9698C206.734 29.885 206.758 29.8123 206.758 29.7517C206.758 29.6668 206.697 29.582 206.576 29.5093C205.752 28.9275 204.649 28.5397 203.473 28.5397C200.928 28.5033 198.904 30.3698 198.941 32.9997C198.892 35.5327 200.916 37.3506 203.352 37.3143C204.479 37.3143 205.57 37.0476 206.6 36.5265Z" fill="black"/>
<path d="M218.997 37.1688C219.203 37.1688 219.3 37.084 219.3 36.878V28.976C219.3 28.77 219.203 28.6851 218.997 28.6851H217.894C217.688 28.6851 217.603 28.77 217.603 28.976V31.8847C217.603 31.9938 217.543 32.0423 217.434 32.0423H214.064C213.955 32.0423 213.907 31.9938 213.907 31.8847V28.976C213.907 28.77 213.81 28.6851 213.604 28.6851H212.501C212.295 28.6851 212.21 28.77 212.21 28.976V36.878C212.21 37.084 212.295 37.1688 212.501 37.1688H213.604C213.81 37.1688 213.907 37.084 213.907 36.878V33.7753C213.907 33.642 213.955 33.6178 214.064 33.6178H217.434C217.567 33.6178 217.603 33.6663 217.603 33.7753V36.878C217.603 37.084 217.688 37.1688 217.894 37.1688H218.997Z" fill="black"/>
<path d="M230.584 30.2607C230.79 30.2607 230.875 30.1758 230.875 29.9698V28.976C230.875 28.77 230.79 28.6851 230.584 28.6851H224.391C224.185 28.6851 224.1 28.77 224.1 28.976V29.9698C224.1 30.1758 224.185 30.2607 224.391 30.2607H226.476C226.585 30.2607 226.645 30.3092 226.645 30.4182V36.878C226.645 37.084 226.73 37.1688 226.936 37.1688H228.039C228.245 37.1688 228.342 37.084 228.342 36.878V30.4182C228.342 30.3092 228.391 30.2607 228.5 30.2607H230.584Z" fill="black"/>
<path d="M249.433 37.1688C249.639 37.1688 249.736 37.084 249.736 36.878V28.976C249.736 28.77 249.639 28.6851 249.433 28.6851H248.33C248.124 28.6851 248.04 28.77 248.04 28.976V31.8847C248.04 31.9938 247.979 32.0423 247.87 32.0423H244.501C244.392 32.0423 244.343 31.9938 244.343 31.8847V28.976C244.343 28.77 244.246 28.6851 244.04 28.6851H242.937C242.731 28.6851 242.646 28.77 242.646 28.976V36.878C242.646 37.084 242.731 37.1688 242.937 37.1688H244.04C244.246 37.1688 244.343 37.084 244.343 36.878V33.7753C244.343 33.642 244.392 33.6178 244.501 33.6178H247.87C248.003 33.6178 248.04 33.6663 248.04 33.7753V36.878C248.04 37.084 248.124 37.1688 248.33 37.1688H249.433Z" fill="black"/>
<path d="M254.997 29.9698C254.997 30.1758 255.094 30.2607 255.3 30.2607H260.378C260.584 30.2607 260.669 30.1758 260.669 29.9698V28.976C260.669 28.77 260.584 28.6851 260.378 28.6851H255.3C255.094 28.6851 254.997 28.77 254.997 28.976V29.9698ZM254.997 33.3996C254.997 33.6057 255.094 33.6905 255.3 33.6905H260.378C260.584 33.6905 260.669 33.6057 260.669 33.3996V32.418C260.669 32.2119 260.584 32.115 260.378 32.115H255.3C255.094 32.115 254.997 32.2119 254.997 32.418V33.3996ZM254.997 36.878C254.997 37.084 255.082 37.1688 255.288 37.1688H260.378C260.584 37.1688 260.681 37.084 260.681 36.878V35.8842C260.681 35.6781 260.584 35.5933 260.378 35.5933H255.288C255.082 35.5933 254.997 35.6781 254.997 35.8842V36.878Z" fill="black"/>
<path d="M267.337 37.1688C267.543 37.1688 267.64 37.084 267.64 36.878V30.3576C267.64 30.2243 267.689 30.2001 267.798 30.2001H268.743C269.991 30.2001 270.658 30.6243 270.658 31.5817C270.658 32.4664 269.979 32.9512 268.961 33.0603C268.816 33.0724 268.743 33.1088 268.743 33.1936C268.743 33.2421 268.767 33.3027 268.816 33.3754L270.888 36.8174C271.07 37.1082 271.179 37.1688 271.482 37.1688H272.658C272.852 37.1688 272.949 37.1203 272.949 37.0234C272.949 36.9749 272.912 36.9022 272.852 36.7931L270.888 33.6784C271.858 33.2784 272.427 32.5392 272.427 31.4363C272.427 29.5941 271.24 28.6851 268.804 28.6851H266.234C266.028 28.6851 265.943 28.77 265.943 28.976V36.878C265.943 37.084 266.028 37.1688 266.234 37.1688H267.337Z" fill="black"/>
<path d="M277.288 29.9698C277.288 30.1758 277.385 30.2607 277.591 30.2607H282.669C282.875 30.2607 282.96 30.1758 282.96 29.9698V28.976C282.96 28.77 282.875 28.6851 282.669 28.6851H277.591C277.385 28.6851 277.288 28.77 277.288 28.976V29.9698ZM277.288 33.3996C277.288 33.6057 277.385 33.6905 277.591 33.6905H282.669C282.875 33.6905 282.96 33.6057 282.96 33.3996V32.418C282.96 32.2119 282.875 32.115 282.669 32.115H277.591C277.385 32.115 277.288 32.2119 277.288 32.418V33.3996ZM277.288 36.878C277.288 37.084 277.373 37.1688 277.579 37.1688H282.669C282.875 37.1688 282.972 37.084 282.972 36.878V35.8842C282.972 35.6781 282.875 35.5933 282.669 35.5933H277.579C277.373 35.5933 277.288 35.6781 277.288 35.8842V36.878Z" fill="black"/>
<path fill-rule="evenodd" clip-rule="evenodd" d="M147.198 11.3802L158.383 21.0909H158.408H160.035L148.825 11.4819L160.035 2H158.434L147.198 11.3802ZM175.823 20.3417C176.974 20.841 178.201 21.0906 179.504 21.0906C180.808 21.0906 182.03 20.841 183.173 20.3417C184.315 19.8425 185.314 19.1612 186.168 18.2981C187.023 17.4349 187.696 16.4279 188.187 15.2771C188.678 14.1262 188.923 12.8992 188.923 11.596C188.923 10.2928 188.678 9.06154 188.187 7.9022C187.696 6.74287 187.027 5.72739 186.181 4.85578C185.335 3.98417 184.341 3.29449 183.198 2.78676C182.056 2.27902 180.825 2.02515 179.504 2.02515C178.184 2.02515 176.949 2.27902 175.798 2.78676C174.647 3.29449 173.644 3.98417 172.79 4.85578C171.935 5.72739 171.262 6.74287 170.771 7.9022C170.281 9.06154 170.035 10.2928 170.035 11.596C170.035 12.8992 170.285 14.1262 170.784 15.2771C171.283 16.4279 171.96 17.4349 172.815 18.2981C173.67 19.1612 174.672 19.8425 175.823 20.3417ZM176.242 3.76415C177.266 3.31565 178.354 3.09139 179.504 3.09139C180.655 3.09141 181.738 3.31988 182.754 3.77685C183.769 4.2338 184.654 4.84732 185.407 5.61739C186.16 6.38746 186.757 7.28869 187.197 8.32109C187.637 9.35348 187.857 10.4367 187.857 11.5706C187.857 12.7045 187.637 13.7835 187.197 14.8074C186.757 15.8313 186.16 16.7283 185.407 17.4984C184.654 18.2685 183.769 18.882 182.754 19.339C181.738 19.7959 180.655 20.0244 179.504 20.0244C178.354 20.0244 177.266 19.8002 176.242 19.3517C175.218 18.9032 174.326 18.2939 173.564 17.5238C172.802 16.7537 172.202 15.8567 171.761 14.8328C171.321 13.8089 171.101 12.7215 171.101 11.5706C171.101 10.4197 171.321 9.3281 171.761 8.2957C172.202 7.2633 172.802 6.36206 173.564 5.59199C174.326 4.82192 175.218 4.21265 176.242 3.76415ZM204.833 2.02818C206.17 1.99435 207.408 2.2438 208.55 2.77652C209.691 3.30924 210.676 4.02799 211.505 4.93277C212.334 5.83755 212.985 6.88184 213.458 8.06566C213.932 9.24949 214.169 10.4587 214.169 11.6932C214.169 12.8601 213.919 14.0143 213.42 15.1559C212.922 16.2974 212.245 17.3206 211.391 18.2254C210.537 19.1301 209.543 19.8489 208.41 20.3816C207.277 20.9143 206.085 21.1469 204.833 21.0792H198.923V20.0138H204.808C205.975 20.0138 207.062 19.7728 208.068 19.2908C209.074 18.8088 209.954 18.1789 210.706 17.4009C211.459 16.623 212.046 15.7351 212.469 14.7373C212.892 13.7395 213.103 12.7248 213.103 11.6932C213.103 10.577 212.896 9.50315 212.482 8.47154C212.067 7.43993 211.492 6.52247 210.757 5.71916C210.021 4.91585 209.146 4.27744 208.131 3.80392C207.117 3.33039 206.009 3.09363 204.808 3.09363H198.923V2.02819L204.833 2.02818ZM234.73 11.1898H224.169V12.3068H234.73V11.1898ZM235.821 2.02515H224.169V3.09139H235.821V2.02515ZM235.821 20.0244H224.169V21.0906H235.821V20.0244ZM260.977 7.17865C260.977 7.82179 260.901 8.38452 260.749 8.86688C260.596 9.34922 260.393 9.77235 260.139 10.1362C259.886 10.5001 259.598 10.8047 259.276 11.0501C258.955 11.2956 258.633 11.4944 258.312 11.6467C257.533 12.0191 256.653 12.2306 255.671 12.2814L260.292 21.0906H259.149L254.529 12.2814H245.821V11.2152H256.052C256.78 11.1813 257.423 11.0121 257.982 10.7074C258.219 10.589 258.455 10.4324 258.692 10.2378C258.929 10.0431 259.137 9.80197 259.314 9.51425C259.492 9.22654 259.636 8.89227 259.746 8.51147C259.856 8.13067 259.911 7.68641 259.911 7.17867C259.911 6.67093 259.856 6.22243 259.746 5.83316C259.636 5.4439 259.492 5.10541 259.314 4.81769C259.137 4.52997 258.929 4.2888 258.692 4.09417C258.455 3.89954 258.219 3.73452 257.982 3.59912C257.423 3.29448 256.78 3.12524 256.052 3.09139H245.821V2.02515H256.052C256.966 2.07592 257.787 2.28748 258.515 2.65982C258.819 2.81214 259.12 3.01522 259.416 3.26908C259.712 3.52295 259.974 3.83183 260.203 4.19571C260.431 4.55959 260.618 4.98693 260.761 5.47774C260.905 5.96855 260.977 6.53552 260.977 7.17865ZM279.467 12.1163C279.002 11.9048 278.49 11.7229 277.932 11.5706C277.187 11.3506 276.464 11.1518 275.761 10.9741C275.059 10.7965 274.433 10.5553 273.883 10.2508C273.333 9.94618 272.889 9.54008 272.551 9.03245C272.212 8.52482 272.043 7.81413 272.043 6.9004C272.043 6.20665 272.183 5.61442 272.462 5.12371C272.741 4.633 273.113 4.23535 273.579 3.93078C274.044 3.6262 274.577 3.40623 275.178 3.27087C275.778 3.1355 276.396 3.07627 277.031 3.09319C277.665 3.11011 278.291 3.19895 278.909 3.3597C279.526 3.52045 280.089 3.74466 280.597 4.03231L281.307 3.32162C280.715 2.91552 280.047 2.60249 279.302 2.38251C278.558 2.16254 277.805 2.0441 277.043 2.02718C276.282 2.01026 275.537 2.09909 274.81 2.29368C274.082 2.48827 273.435 2.78861 272.868 3.19471C272.301 3.60081 271.844 4.11268 271.497 4.7303C271.15 5.34791 270.977 6.07128 270.977 6.9004C270.977 7.42495 271.053 7.93257 271.205 8.42328C271.358 8.91399 271.578 9.36662 271.865 9.78119C272.153 10.1957 272.504 10.5595 272.919 10.8726C273.333 11.1856 273.811 11.4183 274.353 11.5706C275.097 11.8075 275.846 12.0148 276.599 12.1924C277.352 12.3701 278.029 12.607 278.63 12.9031C279.23 13.1992 279.721 13.6011 280.102 14.1087C280.482 14.6164 280.673 15.3186 280.673 16.2154C280.673 16.8922 280.533 17.476 280.254 17.9667C279.975 18.4574 279.598 18.8551 279.124 19.1596C278.651 19.4642 278.113 19.6842 277.513 19.8195C276.912 19.9549 276.294 20.0141 275.66 19.9972C275.025 19.9803 274.395 19.8957 273.769 19.7434C273.143 19.5911 272.576 19.3711 272.068 19.0835L271.358 19.7942C271.95 20.2172 272.618 20.5345 273.363 20.746C274.107 20.9575 274.865 21.0717 275.635 21.0886C276.404 21.1055 277.153 21.0167 277.881 20.8221C278.608 20.6275 279.256 20.3314 279.822 19.9337C280.389 19.5361 280.846 19.0243 281.193 18.3982C281.54 17.7721 281.713 17.0445 281.713 16.2154C281.713 15.437 281.62 14.7856 281.434 14.261C281.248 13.7365 280.99 13.3008 280.66 12.9539C280.33 12.607 279.932 12.3278 279.467 12.1163Z" fill="#34165A"/>
<path d="M158.383 21.0909L157.399 22.2236L157.823 22.5909H158.383V21.0909ZM147.198 11.3802L146.236 10.2287L144.884 11.3579L146.214 12.5129L147.198 11.3802ZM160.035 21.0909V22.5909H164.09L161.011 19.952L160.035 21.0909ZM148.825 11.4819L147.856 10.3366L146.511 11.4743L147.848 12.6208L148.825 11.4819ZM160.035 2L161.004 3.14528L164.131 0.5L160.035 0.5V2ZM158.434 2V0.5H157.89L157.472 0.848523L158.434 2ZM175.823 20.3417L176.42 18.9657L176.42 18.9657L175.823 20.3417ZM183.173 20.3417L182.572 18.9673L182.572 18.9673L183.173 20.3417ZM186.168 18.2981L185.103 17.2427L185.103 17.2427L186.168 18.2981ZM188.187 15.2771L189.566 15.8655L189.566 15.8655L188.187 15.2771ZM186.181 4.85578L185.105 5.90065L185.105 5.90065L186.181 4.85578ZM183.198 2.78676L183.807 1.41604L183.807 1.41604L183.198 2.78676ZM175.798 2.78676L175.193 1.41438L175.193 1.41438L175.798 2.78676ZM172.79 4.85578L173.861 5.906L173.861 5.90599L172.79 4.85578ZM170.784 15.2771L169.408 15.874L169.408 15.874L170.784 15.2771ZM172.815 18.2981L171.749 19.3535L171.749 19.3535L172.815 18.2981ZM179.504 3.09139L179.504 1.59139H179.504V3.09139ZM176.242 3.76415L175.64 2.39018L175.64 2.39018L176.242 3.76415ZM182.754 3.77685L182.138 5.14473L182.138 5.14473L182.754 3.77685ZM185.407 5.61739L186.479 4.56858L186.479 4.56858L185.407 5.61739ZM187.197 14.8074L188.575 15.3997L188.575 15.3997L187.197 14.8074ZM185.407 17.4984L186.479 18.5472L186.479 18.5472L185.407 17.4984ZM176.242 19.3517L176.844 17.9777L176.844 17.9777L176.242 19.3517ZM173.564 17.5238L174.63 16.469L174.63 16.469L173.564 17.5238ZM171.761 14.8328L173.14 14.2405L173.14 14.2405L171.761 14.8328ZM208.55 2.77652L209.184 1.41725L209.184 1.41725L208.55 2.77652ZM204.833 2.02818L204.833 3.52818L204.852 3.52818L204.871 3.5277L204.833 2.02818ZM211.505 4.93277L212.611 3.91965L212.611 3.91965L211.505 4.93277ZM213.458 8.06566L212.066 8.62275L212.066 8.62276L213.458 8.06566ZM213.42 15.1559L214.795 15.7566L214.795 15.7566L213.42 15.1559ZM211.391 18.2254L210.3 17.1957L210.3 17.1957L211.391 18.2254ZM208.41 20.3816L209.049 21.7391L209.049 21.7391L208.41 20.3816ZM204.833 21.0792L204.914 19.5814L204.874 19.5792H204.833V21.0792ZM198.923 21.0792H197.423V22.5792H198.923V21.0792ZM198.923 20.0138V18.5138H197.423V20.0138H198.923ZM208.068 19.2908L208.716 20.6436L208.716 20.6436L208.068 19.2908ZM210.706 17.4009L211.784 18.4439L211.784 18.4439L210.706 17.4009ZM212.482 8.47154L211.09 9.0306L211.09 9.0306L212.482 8.47154ZM210.757 5.71916L209.651 6.73222L209.651 6.73222L210.757 5.71916ZM208.131 3.80392L207.497 5.16319L207.497 5.16319L208.131 3.80392ZM198.923 3.09363H197.423V4.59363H198.923V3.09363ZM198.923 2.02819L198.923 0.528192L197.423 0.528196V2.02819H198.923ZM224.169 11.1898V9.68978H222.669V11.1898H224.169ZM234.73 11.1898H236.23V9.68978H234.73V11.1898ZM224.169 12.3068H222.669V13.8068H224.169V12.3068ZM234.73 12.3068V13.8068H236.23V12.3068H234.73ZM224.169 2.02515V0.525146H222.669V2.02515H224.169ZM235.821 2.02515H237.321V0.525146H235.821V2.02515ZM224.169 3.09139H222.669V4.59139H224.169V3.09139ZM235.821 3.09139V4.59139H237.321V3.09139H235.821ZM224.169 20.0244V18.5244H222.669V20.0244H224.169ZM235.821 20.0244H237.321V18.5244H235.821V20.0244ZM224.169 21.0906H222.669V22.5906H224.169V21.0906ZM235.821 21.0906V22.5906H237.321V21.0906H235.821ZM260.749 8.86688L262.179 9.31857L262.179 9.31857L260.749 8.86688ZM260.139 10.1362L261.37 10.9945L261.37 10.9945L260.139 10.1362ZM259.276 11.0501L258.366 9.85772L258.366 9.85772L259.276 11.0501ZM258.312 11.6467L257.669 10.2911L257.664 10.2935L258.312 11.6467ZM255.671 12.2814L255.594 10.7834L253.255 10.9044L254.343 12.9781L255.671 12.2814ZM260.292 21.0906V22.5906H262.772L261.62 20.3939L260.292 21.0906ZM259.149 21.0906L257.821 21.7874L258.242 22.5906H259.149V21.0906ZM254.529 12.2814L255.857 11.5847L255.436 10.7814H254.529V12.2814ZM245.821 12.2814H244.321V13.7814H245.821V12.2814ZM245.821 11.2152V9.71517H244.321V11.2152H245.821ZM256.052 11.2152V12.7152H256.087L256.122 12.7135L256.052 11.2152ZM257.982 10.7074L257.311 9.36579L257.287 9.37777L257.263 9.39059L257.982 10.7074ZM258.692 10.2378L257.74 9.07868L257.74 9.07869L258.692 10.2378ZM259.314 9.51425L258.038 8.726L258.038 8.726L259.314 9.51425ZM259.746 8.51147L261.187 8.92778L261.187 8.92778L259.746 8.51147ZM259.746 5.83316L261.189 5.42523L261.189 5.42523L259.746 5.83316ZM259.314 4.81769L258.038 5.60592L258.038 5.60593L259.314 4.81769ZM258.692 4.09417L257.74 5.25325L257.74 5.25328L258.692 4.09417ZM257.982 3.59912L258.726 2.29675L258.713 2.28939L258.7 2.28227L257.982 3.59912ZM256.052 3.09139L256.122 1.59301L256.087 1.59139H256.052V3.09139ZM245.821 3.09139H244.321V4.59139H245.821V3.09139ZM245.821 2.02515V0.525146H244.321V2.02515H245.821ZM256.052 2.02515L256.135 0.527456L256.094 0.525146H256.052V2.02515ZM258.515 2.65982L257.831 3.99524L257.844 4.00145L258.515 2.65982ZM259.416 3.26908L258.44 4.40796L258.44 4.40797L259.416 3.26908ZM260.203 4.19571L261.473 3.39807L261.473 3.39805L260.203 4.19571ZM277.932 11.5706L277.507 13.0091L277.522 13.0136L277.537 13.0177L277.932 11.5706ZM279.467 12.1163L280.088 10.7507L280.088 10.7507L279.467 12.1163ZM275.761 10.9741L275.394 12.4283L275.394 12.4283L275.761 10.9741ZM273.883 10.2508L273.156 11.5629L273.156 11.5629L273.883 10.2508ZM272.462 5.12371L273.766 5.8655L273.766 5.8655L272.462 5.12371ZM275.178 3.27087L274.848 1.80756L274.848 1.80756L275.178 3.27087ZM278.909 3.3597L279.287 1.90806L279.287 1.90806L278.909 3.3597ZM280.597 4.03231L279.857 5.33735L280.85 5.90009L281.657 5.09296L280.597 4.03231ZM281.307 3.32162L282.368 4.38227L283.645 3.10558L282.156 2.08453L281.307 3.32162ZM279.302 2.38251L278.877 3.82104L278.877 3.82104L279.302 2.38251ZM277.043 2.02718L277.01 3.52681L277.043 2.02718ZM272.868 3.19471L271.994 1.97534L271.994 1.97534L272.868 3.19471ZM271.497 4.7303L272.805 5.46485L272.805 5.46484L271.497 4.7303ZM271.205 8.42328L272.638 7.9787L272.638 7.97868L271.205 8.42328ZM271.865 9.78119L270.633 10.6363L270.633 10.6363L271.865 9.78119ZM272.919 10.8726L272.015 12.0696L272.015 12.0696L272.919 10.8726ZM274.353 11.5706L274.808 10.1412L274.783 10.1335L274.759 10.1266L274.353 11.5706ZM276.599 12.1924L276.944 10.7325L276.944 10.7325L276.599 12.1924ZM278.63 12.9031L279.293 11.5577L279.293 11.5577L278.63 12.9031ZM280.254 17.9667L281.558 18.7085L281.558 18.7085L280.254 17.9667ZM279.124 19.1596L279.936 20.4214L279.936 20.4214L279.124 19.1596ZM273.769 19.7434L274.124 18.2859L274.124 18.2859L273.769 19.7434ZM272.068 19.0835L272.808 17.7784L271.815 17.2157L271.008 18.0228L272.068 19.0835ZM271.358 19.7942L270.297 18.7335L269.045 19.9856L270.486 21.0148L271.358 19.7942ZM273.363 20.746L273.773 19.3031L273.773 19.3031L273.363 20.746ZM275.635 21.0886L275.667 19.589L275.667 19.589L275.635 21.0886ZM277.881 20.8221L278.268 22.2712L278.268 22.2712L277.881 20.8221ZM279.822 19.9337L278.961 18.7058L278.961 18.7058L279.822 19.9337ZM281.193 18.3982L282.505 19.1252L282.505 19.1251L281.193 18.3982ZM281.434 14.261L282.848 13.7594L282.848 13.7594L281.434 14.261ZM280.66 12.9539L281.747 11.9201L281.747 11.9201L280.66 12.9539ZM159.366 19.9582L148.181 10.2475L146.214 12.5129L157.399 22.2236L159.366 19.9582ZM158.408 19.5909H158.383V22.5909H158.408V19.5909ZM160.035 19.5909H158.408V22.5909H160.035V19.5909ZM147.848 12.6208L159.059 22.2298L161.011 19.952L149.801 10.343L147.848 12.6208ZM159.067 0.854724L147.856 10.3366L149.793 12.6272L161.004 3.14528L159.067 0.854724ZM158.434 3.5H160.035V0.5H158.434V3.5ZM148.159 12.5317L159.395 3.15148L157.472 0.848523L146.236 10.2287L148.159 12.5317ZM179.504 19.5906C178.398 19.5906 177.375 19.38 176.42 18.9657L175.226 21.7178C176.573 22.302 178.004 22.5906 179.504 22.5906V19.5906ZM182.572 18.9673C181.628 19.38 180.61 19.5906 179.504 19.5906V22.5906C181.005 22.5906 182.433 22.302 183.774 21.7162L182.572 18.9673ZM185.103 17.2427C184.385 17.9674 183.545 18.5419 182.572 18.9673L183.774 21.7162C185.085 21.143 186.243 20.3551 187.234 19.3535L185.103 17.2427ZM186.807 14.6886C186.388 15.6708 185.82 16.518 185.103 17.2427L187.234 19.3535C188.226 18.3518 189.004 17.1851 189.566 15.8655L186.807 14.6886ZM187.423 11.596C187.423 12.7055 187.215 13.7315 186.807 14.6886L189.566 15.8655C190.14 14.5209 190.423 13.0928 190.423 11.596H187.423ZM186.805 8.48699C187.215 9.45478 187.423 10.4865 187.423 11.596H190.423C190.423 10.0991 190.14 8.66829 189.568 7.31742L186.805 8.48699ZM185.105 5.90065C185.817 6.63427 186.384 7.49226 186.805 8.48699L189.568 7.31742C189.008 5.99348 188.238 4.82052 187.257 3.81091L185.105 5.90065ZM182.589 4.15747C183.562 4.58972 184.396 5.1705 185.105 5.90065L187.257 3.81091C186.274 2.79784 185.12 1.99926 183.807 1.41604L182.589 4.15747ZM179.504 3.52515C180.627 3.52515 181.649 3.73971 182.589 4.15747L183.807 1.41604C182.463 0.818333 181.022 0.525146 179.504 0.525146V3.52515ZM176.403 4.15913C177.354 3.7397 178.382 3.52515 179.504 3.52515V0.525146C177.986 0.525146 176.544 0.818341 175.193 1.41438L176.403 4.15913ZM173.861 5.90599C174.578 5.1745 175.421 4.59239 176.403 4.15913L175.193 1.41438C173.873 1.99659 172.711 2.79383 171.719 3.80557L173.861 5.90599ZM172.153 8.48699C172.572 7.49536 173.142 6.63908 173.861 5.906L171.719 3.80557C170.728 4.81571 169.952 5.99038 169.39 7.31742L172.153 8.48699ZM171.535 11.596C171.535 10.4865 171.743 9.45478 172.153 8.48699L169.39 7.31742C168.818 8.66829 168.535 10.0991 168.535 11.596H171.535ZM172.16 14.6801C171.746 13.725 171.535 12.7019 171.535 11.596H168.535C168.535 13.0964 168.824 14.5274 169.408 15.874L172.16 14.6801ZM173.881 17.2427C173.161 16.5161 172.588 15.6659 172.16 14.6801L169.408 15.874C169.979 17.1899 170.759 18.3538 171.749 19.3535L173.881 17.2427ZM176.42 18.9657C175.439 18.5399 174.597 17.9656 173.881 17.2427L171.749 19.3535C172.743 20.3569 173.906 21.145 175.226 21.7178L176.42 18.9657ZM179.504 1.59139C178.153 1.59139 176.86 1.85609 175.64 2.39018L176.844 5.13813C177.673 4.77522 178.554 4.59139 179.504 4.59139V1.59139ZM183.37 2.40896C182.154 1.86197 180.86 1.59141 179.504 1.59139L179.504 4.59139C180.45 4.5914 181.323 4.7778 182.138 5.14473L183.37 2.40896ZM186.479 4.56858C185.591 3.66002 184.55 2.94017 183.37 2.40896L182.138 5.14473C182.989 5.52744 183.717 6.03462 184.335 6.6662L186.479 4.56858ZM188.577 7.73294C188.067 6.53651 187.368 5.47733 186.479 4.56858L184.335 6.6662C184.952 7.29759 185.447 8.04086 185.817 8.90923L188.577 7.73294ZM189.357 11.5706C189.357 10.2367 189.097 8.95327 188.577 7.73294L185.817 8.90923C186.177 9.75369 186.357 10.6366 186.357 11.5706H189.357ZM188.575 15.3997C189.097 14.1853 189.357 12.9045 189.357 11.5706H186.357C186.357 12.5046 186.177 13.3816 185.819 14.2152L188.575 15.3997ZM186.479 18.5472C187.366 17.6405 188.064 16.5873 188.575 15.3997L185.819 14.2152C185.449 15.0754 184.954 15.8162 184.335 16.4496L186.479 18.5472ZM183.37 20.7068C184.55 20.1756 185.591 19.4558 186.479 18.5472L184.335 16.4496C183.717 17.0812 182.989 17.5884 182.138 17.9711L183.37 20.7068ZM179.504 21.5244C180.86 21.5244 182.154 21.2538 183.37 20.7068L182.138 17.9711C181.323 18.338 180.45 18.5244 179.504 18.5244V21.5244ZM175.64 20.7256C176.86 21.2597 178.153 21.5244 179.504 21.5244V18.5244C178.554 18.5244 177.673 18.3406 176.844 17.9777L175.64 20.7256ZM172.497 18.5786C173.397 19.4878 174.448 20.2035 175.64 20.7256L176.844 17.9777C175.988 17.6028 175.254 17.0999 174.63 16.469L172.497 18.5786ZM170.383 15.425C170.895 16.6162 171.6 17.6713 172.497 18.5786L174.63 16.469C174.005 15.8362 173.508 15.0973 173.14 14.2405L170.383 15.425ZM169.601 11.5706C169.601 12.9183 169.86 14.2079 170.383 15.425L173.14 14.2405C172.783 13.4099 172.601 12.5246 172.601 11.5706H169.601ZM170.382 7.70755C169.86 8.93069 169.601 10.2228 169.601 11.5706H172.601C172.601 10.6166 172.783 9.72551 173.141 8.88385L170.382 7.70755ZM172.497 4.53721C171.598 5.44655 170.893 6.50767 170.382 7.70755L173.141 8.88385C173.51 8.01894 174.007 7.27756 174.63 6.64677L172.497 4.53721ZM175.64 2.39018C174.449 2.91226 173.397 3.62798 172.497 4.53721L174.63 6.64677C175.254 6.01587 175.988 5.51305 176.844 5.13813L175.64 2.39018ZM209.184 1.41725C207.82 0.780469 206.349 0.489326 204.796 0.528656L204.871 3.5277C205.99 3.49938 206.997 3.70714 207.916 4.13579L209.184 1.41725ZM212.611 3.91965C211.646 2.86572 210.499 2.03098 209.184 1.41725L207.916 4.13579C208.883 4.5875 209.707 5.19027 210.399 5.94589L212.611 3.91965ZM214.851 7.50858C214.313 6.16339 213.567 4.96312 212.611 3.91965L210.399 5.94589C211.101 6.71198 211.657 7.6003 212.066 8.62275L214.851 7.50858ZM215.669 11.6932C215.669 10.2616 215.393 8.86365 214.851 7.50857L212.066 8.62276C212.471 9.63532 212.669 10.6558 212.669 11.6932H215.669ZM214.795 15.7566C215.371 14.4386 215.669 13.0806 215.669 11.6932H212.669C212.669 12.6396 212.468 13.5901 212.046 14.5552L214.795 15.7566ZM212.482 19.255C213.455 18.2245 214.227 17.0561 214.795 15.7566L212.046 14.5552C211.616 15.5387 211.036 16.4167 210.3 17.1957L212.482 19.255ZM209.049 21.7391C210.351 21.1269 211.498 20.2973 212.482 19.255L210.3 17.1957C209.576 17.963 208.736 18.5709 207.772 19.0241L209.049 21.7391ZM204.753 22.577C206.251 22.658 207.691 22.3774 209.049 21.7391L207.772 19.0241C206.864 19.4512 205.919 19.6357 204.914 19.5814L204.753 22.577ZM198.923 22.5792H204.833V19.5792H198.923V22.5792ZM197.423 20.0138V21.0792H200.423V20.0138H197.423ZM204.808 18.5138H198.923V21.5138H204.808V18.5138ZM207.42 17.938C206.625 18.3186 205.761 18.5138 204.808 18.5138V21.5138C206.189 21.5138 207.498 21.227 208.716 20.6436L207.42 17.938ZM209.628 16.358C209.003 17.004 208.271 17.5305 207.42 17.938L208.716 20.6436C209.878 20.0871 210.904 19.3537 211.784 18.4439L209.628 16.358ZM211.088 14.1521C210.737 14.9802 210.252 15.7128 209.628 16.358L211.784 18.4439C212.665 17.5331 213.356 16.4901 213.85 15.3226L211.088 14.1521ZM211.603 11.6932C211.603 12.5137 211.436 13.3299 211.088 14.1521L213.85 15.3226C214.347 14.1491 214.603 12.936 214.603 11.6932H211.603ZM211.09 9.0306C211.433 9.88373 211.603 10.7678 211.603 11.6932H214.603C214.603 10.3863 214.36 9.12258 213.874 7.91249L211.09 9.0306ZM209.651 6.73222C210.262 7.39983 210.741 8.16274 211.09 9.0306L213.874 7.91249C213.394 6.71711 212.723 5.64511 211.863 4.7061L209.651 6.73222ZM207.497 5.16319C208.338 5.5558 209.052 6.07828 209.651 6.73222L211.863 4.7061C210.991 3.75342 209.954 2.99908 208.766 2.44464L207.497 5.16319ZM204.808 4.59363C205.806 4.59363 206.695 4.78894 207.497 5.16319L208.766 2.44464C207.538 1.87183 206.212 1.59363 204.808 1.59363V4.59363ZM198.923 4.59363H204.808V1.59363H198.923V4.59363ZM197.423 2.02819V3.09363H200.423V2.02819H197.423ZM204.833 0.528176L198.923 0.528192L198.923 3.52819L204.833 3.52818L204.833 0.528176ZM224.169 12.6898H234.73V9.68978H224.169V12.6898ZM225.669 12.3068V11.1898H222.669V12.3068H225.669ZM234.73 10.8068H224.169V13.8068H234.73V10.8068ZM233.23 11.1898V12.3068H236.23V11.1898H233.23ZM224.169 3.52515H235.821V0.525146H224.169V3.52515ZM225.669 3.09139V2.02515H222.669V3.09139H225.669ZM235.821 1.59139H224.169V4.59139H235.821V1.59139ZM234.321 2.02515V3.09139H237.321V2.02515H234.321ZM224.169 21.5244H235.821V18.5244H224.169V21.5244ZM225.669 21.0906V20.0244H222.669V21.0906H225.669ZM235.821 19.5906H224.169V22.5906H235.821V19.5906ZM234.321 20.0244V21.0906H237.321V20.0244H234.321ZM262.179 9.31857C262.388 8.65667 262.477 7.93552 262.477 7.17865H259.477C259.477 7.70805 259.414 8.11237 259.318 8.41518L262.179 9.31857ZM261.37 10.9945C261.722 10.49 261.987 9.92586 262.179 9.31857L259.318 8.41518C259.205 8.77259 259.065 9.05475 258.909 9.27796L261.37 10.9945ZM260.186 12.2426C260.643 11.8944 261.036 11.4734 261.37 10.9945L258.909 9.27796C258.736 9.5268 258.553 9.71511 258.366 9.85772L260.186 12.2426ZM258.954 13.0023C259.382 12.7995 259.793 12.5431 260.186 12.2426L258.366 9.85772C258.117 10.048 257.884 10.1893 257.669 10.2911L258.954 13.0023ZM255.749 13.7794C256.901 13.7198 257.979 13.4687 258.959 12.9999L257.664 10.2935C257.087 10.5695 256.405 10.7414 255.594 10.7834L255.749 13.7794ZM261.62 20.3939L257 11.5847L254.343 12.9781L258.963 21.7874L261.62 20.3939ZM259.149 22.5906H260.292V19.5906H259.149V22.5906ZM253.201 12.9781L257.821 21.7874L260.478 20.3939L255.857 11.5847L253.201 12.9781ZM245.821 13.7814H254.529V10.7814H245.821V13.7814ZM244.321 11.2152V12.2814H247.321V11.2152H244.321ZM256.052 9.71517H245.821V12.7152H256.052V9.71517ZM257.263 9.39059C256.932 9.57154 256.516 9.69197 255.982 9.71679L256.122 12.7135C257.044 12.6707 257.915 12.4526 258.7 12.0243L257.263 9.39059ZM257.74 9.07869C257.577 9.21303 257.433 9.3046 257.311 9.36579L258.652 12.0491C259.004 11.8733 259.334 11.6518 259.645 11.3968L257.74 9.07869ZM258.038 8.726C257.938 8.88748 257.837 8.99918 257.74 9.07868L259.645 11.3969C260.022 11.0871 260.335 10.7165 260.591 10.3025L258.038 8.726ZM258.305 8.09517C258.226 8.36694 258.133 8.5721 258.038 8.726L260.591 10.3025C260.851 9.88098 261.046 9.4176 261.187 8.92778L258.305 8.09517ZM258.411 7.17867C258.411 7.58293 258.367 7.88141 258.305 8.09517L261.187 8.92778C261.345 8.37992 261.411 7.78989 261.411 7.17867H258.411ZM258.302 6.24109C258.367 6.46889 258.411 6.77542 258.411 7.17867H261.411C261.411 6.56645 261.345 5.97597 261.189 5.42523L258.302 6.24109ZM258.038 5.60593C258.13 5.75476 258.223 5.9604 258.302 6.24109L261.189 5.42523C261.049 4.9274 260.854 4.45606 260.591 4.02944L258.038 5.60593ZM257.74 5.25328C257.837 5.33277 257.938 5.44446 258.038 5.60592L260.591 4.02946C260.335 3.61549 260.022 3.24484 259.644 2.93506L257.74 5.25328ZM257.237 4.90149C257.393 4.9903 257.561 5.10569 257.74 5.25325L259.645 2.93509C259.35 2.69338 259.044 2.47874 258.726 2.29675L257.237 4.90149ZM255.982 4.58977C256.516 4.61459 256.932 4.73502 257.263 4.91596L258.7 2.28227C257.915 1.85394 257.044 1.63588 256.122 1.59301L255.982 4.58977ZM245.821 4.59139H256.052V1.59139H245.821V4.59139ZM244.321 2.02515V3.09139H247.321V2.02515H244.321ZM256.052 0.525146H245.821V3.52515H256.052V0.525146ZM259.198 1.32444C258.263 0.845875 257.233 0.588453 256.135 0.527456L255.969 3.52284C256.699 3.56339 257.311 3.72908 257.831 3.99519L259.198 1.32444ZM260.392 2.13021C260.016 1.8078 259.614 1.53259 259.186 1.31818L257.844 4.00145C258.024 4.09169 258.224 4.22263 258.44 4.40796L260.392 2.13021ZM261.473 3.39805C261.173 2.91916 260.814 2.49178 260.392 2.1302L258.44 4.40797C258.61 4.55412 258.776 4.74451 258.933 4.99337L261.473 3.39805ZM262.201 5.05583C262.025 4.45694 261.787 3.89851 261.473 3.39807L258.933 4.99336C259.075 5.22067 259.21 5.51693 259.322 5.89965L262.201 5.05583ZM262.477 7.17865C262.477 6.42769 262.394 5.71362 262.201 5.05583L259.322 5.89965C259.417 6.22349 259.477 6.64335 259.477 7.17865H262.477ZM277.537 13.0177C278.028 13.1516 278.463 13.3075 278.846 13.4818L280.088 10.7507C279.541 10.502 278.952 10.2941 278.326 10.1234L277.537 13.0177ZM275.394 12.4283C276.075 12.6008 276.78 12.7943 277.507 13.0091L278.357 10.1321C277.594 9.9069 276.852 9.70279 276.129 9.51995L275.394 12.4283ZM273.156 11.5629C273.835 11.9388 274.585 12.2236 275.394 12.4283L276.129 9.51995C275.534 9.36926 275.031 9.17191 274.61 8.93857L273.156 11.5629ZM271.303 9.8645C271.778 10.5777 272.404 11.1459 273.156 11.5629L274.61 8.93857C274.263 8.74644 274 8.50245 273.799 8.2004L271.303 9.8645ZM270.543 6.9004C270.543 7.9719 270.737 9.01618 271.303 9.8645L273.799 8.2004C273.687 8.03346 273.543 7.65636 273.543 6.9004H270.543ZM271.158 4.38192C270.724 5.14503 270.543 6.00562 270.543 6.9004H273.543C273.543 6.40767 273.641 6.08382 273.766 5.8655L271.158 4.38192ZM272.757 2.67572C272.09 3.11274 271.553 3.68755 271.158 4.38192L273.766 5.8655C273.929 5.57845 274.137 5.35797 274.4 5.18583L272.757 2.67572ZM274.848 1.80756C274.091 1.97816 273.388 2.26289 272.757 2.67572L274.4 5.18583C274.7 4.98951 275.063 4.83431 275.507 4.73417L274.848 1.80756ZM277.071 1.59372C276.316 1.57359 275.574 1.64404 274.848 1.80756L275.507 4.73417C275.983 4.62697 276.476 4.57895 276.991 4.59266L277.071 1.59372ZM279.287 1.90806C278.559 1.71873 277.82 1.6137 277.071 1.59372L276.991 4.59266C277.51 4.60652 278.023 4.67917 278.531 4.81134L279.287 1.90806ZM281.336 2.72728C280.705 2.3695 280.019 2.09867 279.287 1.90806L278.531 4.81134C279.034 4.94223 279.473 5.11982 279.857 5.33735L281.336 2.72728ZM280.247 2.26097L279.536 2.97166L281.657 5.09296L282.368 4.38227L280.247 2.26097ZM278.877 3.82104C279.483 4.00008 280.007 4.24845 280.459 4.55872L282.156 2.08453C281.424 1.58258 280.61 1.2049 279.727 0.943989L278.877 3.82104ZM277.01 3.52681C277.636 3.54072 278.257 3.63794 278.877 3.82104L279.727 0.943989C278.858 0.68714 277.973 0.547473 277.077 0.527547L277.01 3.52681ZM275.197 3.74276C275.786 3.58527 276.389 3.51301 277.01 3.52681L277.077 0.527547C276.175 0.507507 275.288 0.612919 274.422 0.844612L275.197 3.74276ZM273.742 4.41409C274.15 4.12134 274.63 3.89443 275.197 3.74276L274.422 0.844612C273.534 1.08212 272.719 1.45589 271.994 1.97534L273.742 4.41409ZM272.805 5.46484C273.046 5.03552 273.356 4.69023 273.742 4.41409L271.994 1.97534C271.246 2.5114 270.642 3.18984 270.19 3.99576L272.805 5.46484ZM272.477 6.9004C272.477 6.28442 272.604 5.82257 272.805 5.46485L270.19 3.99575C269.697 4.87326 269.477 5.85814 269.477 6.9004H272.477ZM272.638 7.97868C272.531 7.63496 272.477 7.2774 272.477 6.9004H269.477C269.477 7.5725 269.575 8.23018 269.773 8.86788L272.638 7.97868ZM273.098 8.92607C272.899 8.63961 272.746 8.32582 272.638 7.9787L269.773 8.86786C269.97 9.50216 270.256 10.0936 270.633 10.6363L273.098 8.92607ZM273.823 9.67553C273.531 9.45547 273.292 9.20611 273.098 8.92606L270.633 10.6363C271.014 11.1854 271.477 11.6636 272.015 12.0696L273.823 9.67553ZM274.759 10.1266C274.382 10.0207 274.076 9.86698 273.823 9.67552L272.015 12.0696C272.59 12.5043 273.24 12.8159 273.947 13.0146L274.759 10.1266ZM276.944 10.7325C276.228 10.5637 275.516 10.3666 274.808 10.1412L273.898 13C274.679 13.2483 275.464 13.4658 276.255 13.6523L276.944 10.7325ZM279.293 11.5577C278.576 11.2045 277.79 10.9323 276.944 10.7325L276.255 13.6523C276.914 13.8079 277.481 14.0095 277.966 14.2485L279.293 11.5577ZM281.302 13.2087C280.772 12.502 280.093 11.9521 279.293 11.5577L277.966 14.2485C278.368 14.4464 278.67 14.7002 278.902 15.0087L281.302 13.2087ZM282.173 16.2154C282.173 15.1245 281.943 14.0639 281.302 13.2087L278.902 15.0087C279.022 15.1688 279.173 15.5127 279.173 16.2154H282.173ZM281.558 18.7085C281.989 17.9507 282.173 17.1006 282.173 16.2154H279.173C279.173 16.6838 279.077 17.0013 278.95 17.2249L281.558 18.7085ZM279.936 20.4214C280.614 19.9855 281.159 19.4092 281.558 18.7085L278.95 17.2249C278.791 17.5056 278.583 17.7246 278.313 17.8979L279.936 20.4214ZM277.843 21.2828C278.598 21.1125 279.301 20.8292 279.936 20.4214L278.313 17.8979C278 18.0992 277.629 18.2558 277.183 18.3562L277.843 21.2828ZM275.62 21.4967C276.375 21.5168 277.117 21.4464 277.843 21.2828L277.183 18.3562C276.707 18.4634 276.214 18.5115 275.7 18.4977L275.62 21.4967ZM273.414 21.2009C274.142 21.3779 274.878 21.4769 275.62 21.4967L275.7 18.4977C275.173 18.4837 274.648 18.4135 274.124 18.2859L273.414 21.2009ZM271.329 20.3885C271.969 20.7512 272.668 21.0192 273.414 21.2009L274.124 18.2859C273.618 18.163 273.183 17.991 272.808 17.7784L271.329 20.3885ZM272.418 20.8548L273.129 20.1441L271.008 18.0228L270.297 18.7335L272.418 20.8548ZM273.773 19.3031C273.183 19.1356 272.673 18.8903 272.23 18.5736L270.486 21.0148C271.227 21.5441 272.053 21.9333 272.953 22.1889L273.773 19.3031ZM275.667 19.589C275.026 19.5749 274.395 19.4799 273.773 19.3031L272.953 22.1889C273.82 22.4351 274.703 22.5685 275.602 22.5882L275.667 19.589ZM277.493 19.373C276.906 19.5301 276.299 19.6028 275.667 19.589L275.602 22.5882C276.51 22.6082 277.401 22.5032 278.268 22.2712L277.493 19.373ZM278.961 18.7058C278.55 18.994 278.066 19.2198 277.493 19.373L278.268 22.2712C279.151 22.0352 279.961 21.6687 280.684 21.1617L278.961 18.7058ZM279.881 17.6712C279.641 18.1052 279.335 18.4433 278.961 18.7058L280.684 21.1617C281.443 20.629 282.052 19.9433 282.505 19.1252L279.881 17.6712ZM280.213 16.2154C280.213 16.8308 280.086 17.3006 279.881 17.6712L282.505 19.1251C282.994 18.2436 283.213 17.2582 283.213 16.2154H280.213ZM280.021 14.7626C280.132 15.076 280.213 15.5451 280.213 16.2154H283.213C283.213 15.329 283.109 14.4952 282.848 13.7594L280.021 14.7626ZM279.573 13.9877C279.736 14.1593 279.893 14.4045 280.021 14.7627L282.848 13.7594C282.603 13.0685 282.244 12.4423 281.747 11.9201L279.573 13.9877ZM278.846 13.4818C279.149 13.6192 279.385 13.7895 279.573 13.9877L281.747 11.9201C281.275 11.4245 280.716 11.0365 280.088 10.7507L278.846 13.4818Z" fill="black"/>
<path d="M57 0.0612793H60.8064V20.106L57 23.0836V0.0612793Z" fill="#650909"/>
<path d="M83.6148 3.00826L87.4519 0V23.0837L71.6432 8.99404V20.0755L67.8062 23.0837V0L83.6148 14.5194V3.00826Z" fill="#650909"/>
<path d="M94.4517 9.85342H108.541V13.7212H98.2887V23.0836H94.4517V9.85342ZM94.4517 0.0612793H109.8V3.89832H94.4517V0.0612793Z" fill="#650909"/>
<path d="M128.311 0.0612793C129.846 0.0612793 131.304 0.358003 132.685 0.951465C134.067 1.54493 135.289 2.35838 136.353 3.39183C137.418 4.42527 138.262 5.6429 138.886 7.04471C139.51 8.44651 139.822 9.95575 139.822 11.5724C139.822 13.1072 139.525 14.5653 138.932 15.9467C138.338 17.328 137.525 18.5507 136.492 19.6149C135.458 20.679 134.24 21.5232 132.839 22.1473C131.437 22.7715 129.928 23.0836 128.311 23.0836C126.776 23.0836 125.313 22.7868 123.921 22.1934C122.53 21.5999 121.307 20.7813 120.253 19.7377C119.199 18.694 118.36 17.4713 117.736 16.0695C117.112 14.6677 116.8 13.1686 116.8 11.5724C116.8 10.0171 117.097 8.54884 117.69 7.1675C118.283 5.78616 119.097 4.57366 120.13 3.52998C121.164 2.48631 122.381 1.65749 123.783 1.04356C125.185 0.429636 126.694 0.102209 128.311 0.0612793ZM128.311 19.2465C129.314 19.2465 130.281 19.047 131.212 18.6479C132.143 18.2489 132.961 17.7015 133.667 17.0057C134.373 16.3099 134.936 15.4964 135.356 14.5653C135.775 13.6342 135.985 12.6366 135.985 11.5724C135.985 10.5492 135.786 9.57203 135.386 8.6409C134.987 7.70978 134.44 6.89121 133.744 6.1852C133.048 5.47918 132.235 4.91642 131.304 4.4969C130.373 4.07738 129.375 3.86762 128.311 3.86762C127.288 3.86762 126.311 4.06715 125.379 4.46621C124.448 4.86526 123.63 5.41268 122.924 6.10846C122.218 6.80425 121.655 7.62282 121.235 8.56417C120.816 9.50553 120.606 10.5083 120.606 11.5724C120.606 12.6161 120.806 13.5933 121.205 14.5039C121.604 15.4146 122.151 16.2178 122.847 16.9136C123.543 17.6094 124.356 18.1619 125.287 18.5712C126.218 18.9805 127.226 19.2056 128.311 19.2465Z" fill="#650909"/>
</svg>
