<?xml version="1.0" encoding="utf-8"?>
<!-- Generator: Adobe Illustrator 23.0.1, SVG Export Plug-In . SVG Version: 6.00 Build 0)  -->
<svg version="1.1" id="Layer_1" xmlns="http://www.w3.org/2000/svg" xmlns:xlink="http://www.w3.org/1999/xlink" x="0px" y="0px"
	 viewBox="0 0 950 580" style="enable-background:new 0 0 950 580;" xml:space="preserve">
<style type="text/css">
	.st0{fill:none;stroke:#B9BED8;stroke-width:0.8381;stroke-miterlimit:10;}
	.st1{fill:#DEE3FC;}
	.st2{fill:#A4AFFF;}
	.st3{fill:#3945BA;}
	.st4{fill:#FFFFFF;}
	.st5{fill:#E8E8E8;}
	.st6{fill:none;stroke:#698BD1;stroke-width:1.0609;stroke-linecap:round;stroke-linejoin:round;stroke-dasharray:3.0129,3.0129;}
	.st7{fill:#4B5A9B;}
	.st8{fill:#7F95F4;}
	.st9{fill:#B2C1F9;}
	.st10{fill:#3052CE;}
	.st11{fill:none;stroke:#495AD6;stroke-width:0.9506;stroke-miterlimit:10;}
	.st12{fill:none;stroke:#495AD6;stroke-width:1.7738;stroke-linecap:round;stroke-linejoin:round;}
	.st13{fill:#F0F4FF;}
	.st14{fill:#7D7D7D;}
	.st15{fill:#606060;}
	.st16{fill:#C9C9C9;}
	.st17{fill:#281616;}
	.st18{fill:#002C54;}
	.st19{fill:#052635;}
	.st20{fill:#E5918F;}
	.st21{fill:#C7E5F2;}
	.st22{fill:#CC6362;}
	.st23{fill:none;stroke:#FFFFFF;stroke-width:0.5315;stroke-miterlimit:10;}
	.st24{opacity:0.5;}
	.st25{opacity:0.5;fill:none;stroke:#CC6362;stroke-width:0.7681;stroke-miterlimit:10;enable-background:new    ;}
	.st26{fill:#375F84;}
	.st27{fill:#467CDB;}
	.st28{fill:#E49191;}
	.st29{fill:#5996EF;}
	.st30{fill:none;stroke:#000000;stroke-width:1.1298;stroke-miterlimit:10;}
	.st31{fill:none;stroke:#FFFFFF;stroke-width:0.9506;stroke-miterlimit:10;}
	.st32{fill:#FFFFFF;stroke:#495AD6;stroke-width:0.9506;stroke-miterlimit:10;}
	.st33{fill:none;stroke:#495AD6;stroke-width:1.7738;stroke-miterlimit:10;}
	.st34{fill:none;stroke:#495AD6;stroke-width:1.7738;stroke-linecap:round;stroke-miterlimit:10;}
	.st35{fill:#193091;}
	.st36{fill:#495AD6;}
	.st37{fill:none;stroke:#FFFFFF;stroke-width:0.9506;stroke-linecap:round;stroke-miterlimit:10;}
	.st38{fill:#6589D1;}
	.st39{fill:#3B5FB7;}
	.st40{fill:none;stroke:#DEE3FC;stroke-width:0.8377;stroke-miterlimit:10;}
	.st41{fill:#CCCCCC;}
	.st42{fill:none;stroke:#FFFFFF;stroke-width:2.1218;stroke-linecap:round;stroke-miterlimit:10;}
	
		.st43{opacity:0.5;fill:none;stroke:#DEE3FC;stroke-width:1.0609;stroke-linecap:round;stroke-miterlimit:10;enable-background:new    ;}
	.st44{fill:#272727;}
	.st45{fill:#7D7D7D;stroke:#F7F7F7;stroke-width:1.0609;stroke-miterlimit:10;}
	.st46{fill:#B4C1EF;}
	.st47{fill:#770000;}
	.st48{fill:#CC0000;}
	.st49{fill:none;stroke:#F7F7F7;stroke-width:1.0609;}
	.st50{fill-rule:evenodd;clip-rule:evenodd;fill:#FFFFFF;}
</style>
<g>
	<defs>
		<rect id="SVGID_1_" width="950" height="580"/>
	</defs>
	<clipPath id="SVGID_2_">
		<use xlink:href="#SVGID_1_"  style="overflow:visible;"/>
	</clipPath>
</g>
<g>
	<path class="st0" d="M297.1,142v-15.9c0-0.4-0.1-0.7-0.2-1.1c-0.1-0.3-0.3-0.7-0.6-0.9c-0.3-0.3-0.6-0.5-0.9-0.6
		c-0.3-0.1-0.7-0.2-1.1-0.2h-4.1c-0.6,0-1.2-0.2-1.6-0.6c-0.5-0.4-0.8-0.9-0.9-1.4c-1.4-6.1-3.8-11.9-7.1-17.2
		c-0.3-0.5-0.5-1.1-0.4-1.7c0.1-0.6,0.3-1.1,0.7-1.6l2.9-2.9c0.3-0.3,0.5-0.6,0.6-0.9c0.1-0.3,0.2-0.7,0.2-1.1s-0.1-0.7-0.2-1.1
		c-0.1-0.3-0.3-0.7-0.6-0.9l-11.3-11.3c-0.3-0.3-0.6-0.5-0.9-0.6c-0.3-0.1-0.7-0.2-1.1-0.2c-0.4,0-0.7,0.1-1.1,0.2
		c-0.3,0.1-0.7,0.3-0.9,0.6l-2.9,2.9c-0.4,0.4-1,0.7-1.6,0.7c-0.6,0.1-1.2-0.1-1.7-0.4c-5.3-3.3-11.1-5.7-17.2-7.1
		c-0.6-0.1-1.1-0.5-1.4-0.9c-0.4-0.5-0.6-1-0.6-1.6v-4.1c0-0.7-0.3-1.5-0.8-2c-0.5-0.5-1.2-0.8-2-0.8h-15.9c-0.7,0-1.5,0.3-2,0.8
		c-0.5,0.5-0.8,1.2-0.8,2v4.1c0,0.6-0.2,1.2-0.6,1.6c-0.4,0.5-0.9,0.8-1.4,0.9c-6.1,1.4-11.9,3.8-17.2,7.1c-0.5,0.3-1.1,0.5-1.7,0.4
		c-0.6-0.1-1.1-0.3-1.6-0.7l-2.9-2.9c-0.3-0.3-0.6-0.5-0.9-0.6c-0.3-0.1-0.7-0.2-1.1-0.2c-0.4,0-0.7,0.1-1.1,0.2
		c-0.3,0.1-0.7,0.3-0.9,0.6l-11.3,11.3c-0.3,0.3-0.5,0.6-0.6,0.9c-0.1,0.3-0.2,0.7-0.2,1.1s0.1,0.7,0.2,1.1c0.1,0.3,0.3,0.7,0.6,0.9
		l2.9,2.9c0.4,0.4,0.7,1,0.7,1.6c0.1,0.6-0.1,1.2-0.4,1.7c-3.3,5.3-5.7,11.1-7.1,17.2c-0.1,0.6-0.5,1.1-0.9,1.4
		c-0.5,0.4-1,0.6-1.6,0.6h-4.1c-0.4,0-0.7,0.1-1.1,0.2c-0.3,0.1-0.7,0.3-0.9,0.6c-0.3,0.3-0.5,0.6-0.6,0.9c-0.1,0.3-0.2,0.7-0.2,1.1
		V142c0,0.7,0.3,1.5,0.8,2c0.5,0.5,1.2,0.8,2,0.8h4.1c0.6,0,1.2,0.2,1.6,0.6c0.5,0.4,0.8,0.9,0.9,1.4c1.4,6.1,3.8,11.9,7.1,17.2
		c0.3,0.5,0.5,1.1,0.4,1.7c-0.1,0.6-0.3,1.1-0.7,1.6l-2.9,2.9c-0.3,0.3-0.5,0.6-0.6,0.9c-0.1,0.3-0.2,0.7-0.2,1.1
		c0,0.4,0.1,0.7,0.2,1.1c0.1,0.3,0.3,0.7,0.6,0.9l11.3,11.3c0.3,0.3,0.6,0.5,0.9,0.6c0.3,0.1,0.7,0.2,1.1,0.2c0.4,0,0.7-0.1,1.1-0.2
		c0.3-0.1,0.7-0.4,0.9-0.6l2.9-2.9c0.4-0.4,1-0.7,1.6-0.7c0.6-0.1,1.2,0.1,1.7,0.4c5.3,3.3,11.1,5.7,17.2,7.1
		c0.6,0.1,1.1,0.5,1.4,0.9c0.4,0.5,0.6,1,0.6,1.6v4.1c0,0.7,0.3,1.5,0.8,2c0.5,0.5,1.2,0.8,2,0.8h15.9c0.7,0,1.5-0.3,2-0.8
		c0.5-0.5,0.8-1.2,0.8-2v-4.1c0-0.6,0.2-1.2,0.6-1.6c0.4-0.5,0.9-0.8,1.4-0.9c6.1-1.4,11.9-3.8,17.2-7.1c0.5-0.3,1.1-0.5,1.7-0.4
		c0.6,0.1,1.1,0.3,1.6,0.7l2.9,2.9c0.3,0.3,0.6,0.5,0.9,0.6c0.3,0.1,0.7,0.2,1.1,0.2c0.4,0,0.7-0.1,1.1-0.2c0.3-0.1,0.7-0.4,0.9-0.6
		l11.3-11.3c0.3-0.3,0.5-0.6,0.6-0.9c0.1-0.3,0.2-0.7,0.2-1.1c0-0.4-0.1-0.7-0.2-1.1c-0.1-0.3-0.3-0.7-0.6-0.9l-2.9-2.9
		c-0.4-0.4-0.7-1-0.7-1.6c-0.1-0.6,0.1-1.2,0.4-1.7c3.3-5.3,5.7-11.1,7.1-17.2c0.1-0.6,0.5-1.1,0.9-1.4c0.5-0.4,1-0.6,1.6-0.6h4.1
		c0.4,0,0.7-0.1,1.1-0.2c0.3-0.1,0.7-0.3,0.9-0.6c0.3-0.3,0.5-0.6,0.6-0.9C297,142.7,297.1,142.4,297.1,142L297.1,142z M232.4,178.9
		c-8.9,0-17.6-2.6-24.9-7.6c-7.4-4.9-13.1-11.9-16.5-20.1c-3.4-8.2-4.3-17.2-2.6-25.9c1.7-8.7,6-16.7,12.3-23
		c6.3-6.3,14.3-10.6,23-12.3c8.7-1.7,17.7-0.9,25.9,2.5c8.2,3.4,15.2,9.1,20.1,16.5c4.9,7.4,7.6,16.1,7.6,24.9
		c0,5.9-1.2,11.7-3.4,17.2c-2.3,5.4-5.6,10.4-9.7,14.6c-4.2,4.2-9.1,7.5-14.6,9.7C244.2,177.7,238.3,178.9,232.4,178.9L232.4,178.9z
		"/>
	<path class="st1" d="M370.3,195.9V185c0-0.5-0.2-1-0.6-1.4c-0.4-0.4-0.8-0.6-1.4-0.6h-2.8c-0.4,0-0.8-0.1-1.1-0.4
		c-0.3-0.2-0.5-0.6-0.6-1c-0.9-4.1-2.6-8.1-4.8-11.7c-0.2-0.3-0.3-0.7-0.3-1.2c0-0.4,0.2-0.8,0.5-1.1l2-2c0.4-0.4,0.6-0.8,0.6-1.4
		c0-0.5-0.2-1-0.6-1.4l-7.7-7.7c-0.2-0.2-0.4-0.3-0.6-0.4c-0.2-0.1-0.5-0.1-0.7-0.1c-0.3,0-0.5,0-0.7,0.1c-0.2,0.1-0.4,0.2-0.6,0.4
		l-2,2c-0.3,0.3-0.7,0.5-1.1,0.5c-0.4,0-0.8-0.1-1.2-0.3c-3.6-2.3-7.6-3.9-11.7-4.8c-0.4-0.1-0.7-0.3-1-0.6
		c-0.2-0.3-0.4-0.7-0.4-1.1v-2.8c0-0.3,0-0.5-0.1-0.7c-0.1-0.2-0.2-0.4-0.4-0.6c-0.2-0.2-0.4-0.3-0.6-0.4c-0.2-0.1-0.5-0.1-0.7-0.1
		h-10.8c-0.3,0-0.5,0-0.7,0.1c-0.2,0.1-0.4,0.2-0.6,0.4c-0.2,0.2-0.3,0.4-0.4,0.6c-0.1,0.2-0.1,0.5-0.1,0.7v2.8
		c0,0.4-0.1,0.8-0.4,1.1c-0.2,0.3-0.6,0.5-1,0.6c-4.2,0.9-8.1,2.6-11.7,4.8c-0.3,0.2-0.7,0.3-1.2,0.3c-0.4,0-0.8-0.2-1.1-0.5l-2-2
		c-0.4-0.4-0.8-0.6-1.4-0.6c-0.5,0-1,0.2-1.4,0.6l-7.7,7.7c-0.4,0.4-0.6,0.8-0.6,1.4c0,0.5,0.2,1,0.6,1.4l2,2
		c0.3,0.3,0.5,0.7,0.5,1.1c0,0.4-0.1,0.8-0.3,1.2c-2.3,3.6-3.9,7.6-4.8,11.7c-0.1,0.4-0.3,0.7-0.6,1c-0.3,0.2-0.7,0.4-1.1,0.4h-2.8
		c-0.5,0-1,0.2-1.4,0.6c-0.4,0.4-0.6,0.8-0.6,1.4v10.8c0,0.3,0,0.5,0.1,0.7c0.1,0.2,0.2,0.4,0.4,0.6s0.4,0.3,0.6,0.4
		c0.2,0.1,0.5,0.1,0.7,0.1h2.8c0.4,0,0.8,0.1,1.1,0.4c0.3,0.2,0.5,0.6,0.6,1c1,4.1,2.6,8.1,4.8,11.7c0.2,0.3,0.3,0.7,0.3,1.2
		c0,0.4-0.2,0.8-0.5,1.1l-2,2c-0.4,0.4-0.6,0.8-0.6,1.4c0,0.5,0.2,1,0.6,1.4l7.7,7.7c0.4,0.4,0.8,0.6,1.4,0.6c0.5,0,1-0.2,1.4-0.6
		l2-2c0.3-0.3,0.7-0.5,1.1-0.5c0.4,0,0.8,0.1,1.2,0.3c3.6,2.2,7.6,3.9,11.7,4.8c0.4,0.1,0.7,0.3,1,0.6c0.2,0.3,0.4,0.7,0.4,1.1v2.8
		c0,0.5,0.2,1,0.6,1.4c0.4,0.4,0.8,0.6,1.4,0.6h10.8c0.5,0,1-0.2,1.4-0.6c0.4-0.4,0.6-0.8,0.6-1.4v-2.8c0-0.4,0.1-0.8,0.4-1.1
		c0.2-0.3,0.6-0.5,1-0.6c4.1-1,8.1-2.6,11.7-4.8c0.3-0.2,0.7-0.3,1.2-0.3c0.4,0,0.8,0.2,1.1,0.5l2,2c0.2,0.2,0.4,0.3,0.6,0.4
		c0.2,0.1,0.5,0.1,0.7,0.1s0.5,0,0.7-0.1c0.2-0.1,0.4-0.2,0.6-0.4l7.7-7.7c0.4-0.4,0.6-0.8,0.6-1.4c0-0.5-0.2-1-0.6-1.4l-2-2
		c-0.3-0.3-0.5-0.7-0.5-1.1c0-0.4,0.1-0.8,0.3-1.2c2.2-3.6,3.9-7.6,4.8-11.7c0.1-0.4,0.3-0.7,0.6-1c0.3-0.2,0.7-0.4,1.1-0.4h2.8
		c0.5,0,1-0.2,1.4-0.6C370.1,196.9,370.3,196.4,370.3,195.9L370.3,195.9z M326.2,219.3c-5.7,0-11.3-1.7-16-4.9
		c-4.7-3.2-8.4-7.7-10.6-12.9c-2.2-5.3-2.8-11.1-1.7-16.7c1.1-5.6,3.9-10.7,7.9-14.8c4-4,9.2-6.8,14.8-7.9
		c5.6-1.1,11.4-0.5,16.7,1.6c5.3,2.2,9.8,5.9,13,10.6c3.2,4.7,4.9,10.3,4.9,16c0,3.8-0.7,7.5-2.2,11c-1.4,3.5-3.6,6.7-6.3,9.4
		c-2.7,2.7-5.9,4.8-9.4,6.3C333.8,218.6,330,219.3,326.2,219.3L326.2,219.3z"/>
	<path class="st2" d="M166.1,483.1c2.9,0,5.3-2.4,5.3-5.3c0-2.9-2.4-5.3-5.3-5.3c-2.9,0-5.3,2.4-5.3,5.3
		C160.8,480.7,163.1,483.1,166.1,483.1z"/>
	<path class="st2" d="M870.4,339.4c2.9,0,5.3-2.4,5.3-5.3c0-2.9-2.4-5.3-5.3-5.3c-2.9,0-5.3,2.4-5.3,5.3
		C865.2,337,867.5,339.4,870.4,339.4z"/>
	<path class="st2" d="M859.9,151.6c2.9,0,5.3-2.4,5.3-5.3c0-2.9-2.4-5.3-5.3-5.3s-5.3,2.4-5.3,5.3
		C854.7,149.3,857,151.6,859.9,151.6z"/>
	<path class="st2" d="M670.9,85.9c1.8,0,3.3-1.5,3.3-3.3c0-1.8-1.5-3.3-3.3-3.3s-3.3,1.5-3.3,3.3C667.6,84.4,669.1,85.9,670.9,85.9z
		"/>
	<path class="st2" d="M186.6,38.6c0,0.7-0.2,1.3-0.6,1.8c-0.4,0.5-0.9,1-1.5,1.2c-0.6,0.2-1.3,0.3-1.9,0.2c-0.6-0.1-1.2-0.4-1.7-0.9
		c-0.5-0.5-0.8-1-0.9-1.7c-0.1-0.6-0.1-1.3,0.2-1.9c0.2-0.6,0.7-1.1,1.2-1.5c0.5-0.4,1.2-0.6,1.8-0.6c0.4,0,0.9,0.1,1.3,0.3
		c0.4,0.2,0.8,0.4,1.1,0.7c0.3,0.3,0.5,0.7,0.7,1.1C186.5,37.8,186.6,38.2,186.6,38.6L186.6,38.6z"/>
	<path class="st2" d="M259.6,241.7c0,0.7-0.2,1.3-0.6,1.8c-0.4,0.5-0.9,1-1.5,1.2c-0.6,0.2-1.3,0.3-1.9,0.2
		c-0.6-0.1-1.2-0.4-1.7-0.9c-0.5-0.5-0.8-1-0.9-1.7s-0.1-1.3,0.2-1.9c0.2-0.6,0.7-1.1,1.2-1.5c0.5-0.4,1.2-0.6,1.8-0.6
		c0.4,0,0.9,0.1,1.3,0.3c0.4,0.2,0.8,0.4,1.1,0.7c0.3,0.3,0.5,0.7,0.7,1.1C259.5,240.9,259.6,241.3,259.6,241.7L259.6,241.7z"/>
	<path class="st2" d="M138.6,483.1c0,0.7-0.2,1.3-0.6,1.8c-0.4,0.5-0.9,1-1.5,1.2c-0.6,0.3-1.3,0.3-1.9,0.2
		c-0.6-0.1-1.2-0.4-1.7-0.9c-0.5-0.5-0.8-1-0.9-1.7s-0.1-1.3,0.2-1.9c0.2-0.6,0.7-1.1,1.2-1.5c0.5-0.4,1.2-0.6,1.8-0.6
		c0.4,0,0.9,0.1,1.3,0.3c0.4,0.2,0.8,0.4,1.1,0.7c0.3,0.3,0.5,0.7,0.7,1.1C138.5,482.2,138.6,482.6,138.6,483.1L138.6,483.1z"/>
	<path class="st2" d="M793.3,486.2c2.9,0,5.3-2.4,5.3-5.3c0-2.9-2.4-5.3-5.3-5.3c-2.9,0-5.3,2.4-5.3,5.3
		C788.1,483.8,790.4,486.2,793.3,486.2z"/>
	<path class="st2" d="M905.1,486.2c2.9,0,5.3-2.4,5.3-5.3c0-2.9-2.4-5.3-5.3-5.3c-2.9,0-5.3,2.4-5.3,5.3
		C899.8,483.8,902.2,486.2,905.1,486.2z"/>
	<path class="st2" d="M277.3,29.6c2.9,0,5.3-2.4,5.3-5.3c0-2.9-2.4-5.3-5.3-5.3s-5.3,2.4-5.3,5.3C272,27.2,274.4,29.6,277.3,29.6z"
		/>
	<path class="st2" d="M640,263.5c0,1.4-0.4,2.8-1.2,3.9c-0.8,1.2-1.9,2.1-3.2,2.6c-1.3,0.5-2.7,0.7-4.1,0.4
		c-1.4-0.3-2.6-0.9-3.6-1.9c-1-1-1.7-2.2-1.9-3.6c-0.3-1.4-0.1-2.8,0.4-4.1c0.5-1.3,1.4-2.4,2.6-3.2c1.2-0.8,2.5-1.2,3.9-1.2
		c0.9,0,1.8,0.2,2.7,0.5c0.9,0.4,1.6,0.9,2.3,1.5c0.7,0.7,1.2,1.4,1.5,2.3C639.9,261.7,640,262.6,640,263.5z"/>
	<path class="st2" d="M121.2,176.5c0,1.4-0.4,2.8-1.2,3.9c-0.8,1.2-1.9,2.1-3.2,2.6c-1.3,0.5-2.7,0.7-4.1,0.4
		c-1.4-0.3-2.6-0.9-3.6-1.9c-1-1-1.7-2.2-1.9-3.6c-0.3-1.4-0.1-2.8,0.4-4.1c0.5-1.3,1.4-2.4,2.6-3.2c1.2-0.8,2.5-1.2,3.9-1.2
		c1.9,0,3.7,0.7,5,2.1C120.4,172.9,121.2,174.7,121.2,176.5L121.2,176.5z"/>
	<path class="st1" d="M844.8,443.7h-9.5c-0.4,0-0.7,0.3-0.7,0.7v9.5c0,0.4,0.3,0.7,0.7,0.7h9.5c0.4,0,0.7-0.3,0.7-0.7v-9.5
		C845.5,444,845.2,443.7,844.8,443.7z"/>
	<path class="st1" d="M859.4,443.7h-9.5c-0.4,0-0.7,0.3-0.7,0.7v9.5c0,0.4,0.3,0.7,0.7,0.7h9.5c0.4,0,0.7-0.3,0.7-0.7v-9.5
		C860.1,444,859.8,443.7,859.4,443.7z"/>
	<path class="st1" d="M874,443.7h-9.5c-0.4,0-0.7,0.3-0.7,0.7v9.5c0,0.4,0.3,0.7,0.7,0.7h9.5c0.4,0,0.7-0.3,0.7-0.7v-9.5
		C874.7,444,874.4,443.7,874,443.7z"/>
	<path class="st1" d="M170.2,437.7h-9.5c-0.4,0-0.7,0.3-0.7,0.7v9.5c0,0.4,0.3,0.7,0.7,0.7h9.5c0.4,0,0.7-0.3,0.7-0.7v-9.5
		C170.9,438.1,170.6,437.7,170.2,437.7z"/>
	<path class="st1" d="M184.8,437.7h-9.5c-0.4,0-0.7,0.3-0.7,0.7v9.5c0,0.4,0.3,0.7,0.7,0.7h9.5c0.4,0,0.7-0.3,0.7-0.7v-9.5
		C185.5,438.1,185.2,437.7,184.8,437.7z"/>
	<path class="st1" d="M199.4,437.7h-9.5c-0.4,0-0.7,0.3-0.7,0.7v9.5c0,0.4,0.3,0.7,0.7,0.7h9.5c0.4,0,0.7-0.3,0.7-0.7v-9.5
		C200.1,438.1,199.8,437.7,199.4,437.7z"/>
	<path class="st3" d="M575.9,8.5H344.8c-12.5,0-22.6,10.1-22.6,22.6v488.6c0,12.5,10.1,22.6,22.6,22.6h231.1
		c12.5,0,22.6-10.1,22.6-22.6V31.1C598.5,18.6,588.4,8.5,575.9,8.5z"/>
	<path class="st4" d="M573.5,13.2H347.1c-11,0-19.8,8.9-19.8,19.8v482c0,11,8.9,19.8,19.8,19.8h226.4c11,0,19.8-8.9,19.8-19.8V33
		C593.3,22,584.5,13.2,573.5,13.2z"/>
	<path class="st5" d="M581.7,41.3v463.1c0,5.2-2.1,10.2-5.8,13.9c-3.7,3.7-8.7,5.8-13.9,5.8H358.6c-5.2,0-10.2-2.1-13.9-5.8
		c-3.7-3.7-5.8-8.7-5.8-13.9V41.3c0-2.6,0.5-5.1,1.5-7.5c1-2.4,2.4-4.6,4.3-6.4c1.8-1.8,4-3.3,6.4-4.3c2.4-1,4.9-1.5,7.5-1.5h33.9
		c0.9,0,1.8,0.3,2.6,0.7c0.8,0.5,1.4,1.2,1.8,2l3.6,7.2c0.8,1.6,2,3,3.6,3.9c1.5,1,3.3,1.5,5.1,1.5h102c1.8,0,3.6-0.5,5.1-1.5
		c1.5-1,2.8-2.3,3.6-3.9l3.6-7.2c0.4-0.8,1-1.5,1.8-2c0.8-0.5,1.7-0.7,2.6-0.7H562c5.2,0,10.2,2.1,13.9,5.8
		C579.6,31.1,581.7,36.1,581.7,41.3L581.7,41.3z"/>
	<path class="st1" d="M503.1,28.5h-82.2c-0.5,0-0.9-0.1-1.3-0.3c-0.4-0.2-0.8-0.4-1.1-0.8c-0.3-0.3-0.6-0.7-0.8-1.1
		c-0.2-0.4-0.3-0.9-0.3-1.3l0,0c0-0.5,0.1-0.9,0.3-1.3c0.2-0.4,0.4-0.8,0.8-1.1c0.3-0.3,0.7-0.6,1.1-0.8c0.4-0.2,0.9-0.3,1.3-0.3
		h82.2c0.9,0,1.8,0.4,2.4,1c0.6,0.6,1,1.5,1,2.4c0,0.9-0.4,1.8-1,2.4C504.9,28.2,504.1,28.5,503.1,28.5L503.1,28.5z"/>
	<path class="st6" d="M553.5,417.3H362.4c-4.9,0-8.9,4-8.9,8.9v72.8c0,4.9,4,8.9,8.9,8.9h191.1c4.9,0,8.9-4,8.9-8.9v-72.8
		C562.4,421.3,558.4,417.3,553.5,417.3z"/>
	<path class="st6" d="M543.1,222h-96.7c-3.5,0-6.4,2.9-6.4,6.4v50.8c0,3.5,2.9,6.4,6.4,6.4h96.7c3.5,0,6.4-2.9,6.4-6.4v-50.8
		C549.5,224.9,546.6,222,543.1,222z"/>
	<path class="st7" d="M563.2,300.9H368.7c-4.2,0-7.6,3.4-7.6,7.6v86.1c0,4.2,3.4,7.6,7.6,7.6h194.5c4.2,0,7.6-3.4,7.6-7.6v-86.1
		C570.8,304.3,567.4,300.9,563.2,300.9z"/>
	<path class="st8" d="M562.4,303.8v79.1c0,1.5-0.3,2.9-0.9,4.3c-0.6,1.4-1.4,2.6-2.4,3.6c-1,1-2.3,1.9-3.6,2.4
		c-1.4,0.6-2.8,0.8-4.3,0.8H364.6c-1.5,0-2.9-0.3-4.3-0.8c-1.4-0.6-2.6-1.4-3.6-2.4c-1-1-1.9-2.3-2.4-3.6c-0.6-1.4-0.8-2.8-0.9-4.3
		v-79.1c0-3,1.2-5.8,3.3-7.9c2.1-2.1,4.9-3.3,7.9-3.3h186.6c3,0,5.8,1.2,7.9,3.3C561.2,298,562.4,300.9,562.4,303.8L562.4,303.8z"/>
	<path class="st4" d="M428,315.8h-59.8c-2.8,0-5.2,2.3-5.2,5.2v59.8c0,2.8,2.3,5.2,5.2,5.2H428c2.8,0,5.2-2.3,5.2-5.2v-59.8
		C433.2,318.1,430.9,315.8,428,315.8z"/>
	<path class="st9" d="M490.8,324.6h-48.4c-0.3,0-0.6-0.1-0.9-0.2c-0.3-0.1-0.6-0.3-0.8-0.5c-0.2-0.2-0.4-0.5-0.5-0.8
		c-0.1-0.3-0.2-0.6-0.2-0.9c0-0.3,0.1-0.6,0.2-0.9c0.1-0.3,0.3-0.6,0.5-0.8c0.2-0.2,0.5-0.4,0.8-0.5c0.3-0.1,0.6-0.2,0.9-0.2h48.4
		c0.6,0,1.2,0.3,1.7,0.7c0.4,0.4,0.7,1.1,0.7,1.7c0,0.6-0.3,1.2-0.7,1.7C492,324.4,491.4,324.6,490.8,324.6z"/>
	<path class="st9" d="M468.7,334.1h-26.4c-0.6,0-1.2-0.3-1.7-0.7c-0.4-0.4-0.7-1.1-0.7-1.7c0-0.6,0.3-1.2,0.7-1.7
		c0.4-0.4,1.1-0.7,1.7-0.7h26.4c0.6,0,1.2,0.3,1.7,0.7c0.4,0.4,0.7,1.1,0.7,1.7l0,0c0,0.6-0.3,1.2-0.7,1.7
		C470,333.9,469.4,334.1,468.7,334.1z"/>
	<path class="st9" d="M549.8,334.1h-71.3c-0.6,0-1.2-0.3-1.7-0.7c-0.4-0.4-0.7-1.1-0.7-1.7c0-0.6,0.3-1.2,0.7-1.7
		c0.4-0.4,1.1-0.7,1.7-0.7h71.3c0.6,0,1.2,0.3,1.7,0.7c0.4,0.4,0.7,1.1,0.7,1.7c0,0.6-0.3,1.2-0.7,1.7
		C551,333.9,550.4,334.1,549.8,334.1z"/>
	<path class="st9" d="M483.2,343.7h-40.8c-0.6,0-1.2-0.3-1.7-0.7c-0.4-0.4-0.7-1.1-0.7-1.7c0-0.3,0.1-0.6,0.2-0.9
		c0.1-0.3,0.3-0.6,0.5-0.8c0.2-0.2,0.5-0.4,0.8-0.5c0.3-0.1,0.6-0.2,0.9-0.2h40.8c0.6,0,1.2,0.3,1.7,0.7c0.4,0.4,0.7,1.1,0.7,1.7
		c0,0.6-0.3,1.2-0.7,1.7C484.4,343.4,483.8,343.6,483.2,343.7L483.2,343.7z"/>
	<path class="st9" d="M517.8,343.7h-25.6c-0.6,0-1.2-0.3-1.7-0.7c-0.4-0.4-0.7-1.1-0.7-1.7c0-0.3,0.1-0.6,0.2-0.9
		c0.1-0.3,0.3-0.6,0.5-0.8c0.2-0.2,0.5-0.4,0.8-0.5c0.3-0.1,0.6-0.2,0.9-0.2h25.6c0.6,0,1.2,0.3,1.7,0.7c0.4,0.4,0.7,1.1,0.7,1.7
		l0,0c0,0.6-0.3,1.2-0.7,1.7C519,343.4,518.4,343.6,517.8,343.7L517.8,343.7z"/>
	<path class="st9" d="M549.8,343.7h-23.6c-0.6,0-1.2-0.3-1.7-0.7c-0.4-0.4-0.7-1.1-0.7-1.7l0,0c0-0.6,0.3-1.2,0.7-1.7
		c0.4-0.4,1.1-0.7,1.7-0.7h23.6c0.6,0,1.2,0.3,1.7,0.7c0.4,0.4,0.7,1.1,0.7,1.7l0,0c0,0.6-0.3,1.2-0.7,1.7
		C551,343.4,550.4,343.6,549.8,343.7L549.8,343.7z"/>
	<path class="st9" d="M549.8,353.2H442.4c-0.3,0-0.6-0.1-0.9-0.2c-0.3-0.1-0.6-0.3-0.8-0.5c-0.2-0.2-0.4-0.5-0.5-0.8
		c-0.1-0.3-0.2-0.6-0.2-0.9l0,0c0-0.3,0.1-0.6,0.2-0.9c0.1-0.3,0.3-0.6,0.5-0.8c0.2-0.2,0.5-0.4,0.8-0.5c0.3-0.1,0.6-0.2,0.9-0.2
		h107.4c0.6,0,1.2,0.3,1.7,0.7c0.4,0.4,0.7,1.1,0.7,1.7c0,0.6-0.3,1.2-0.7,1.7C551,352.9,550.4,353.2,549.8,353.2z"/>
	<path class="st9" d="M501.5,362.7h-59.1c-0.3,0-0.6-0.1-0.9-0.2c-0.3-0.1-0.6-0.3-0.8-0.5c-0.2-0.2-0.4-0.5-0.5-0.8
		c-0.1-0.3-0.2-0.6-0.2-0.9s0.1-0.6,0.2-0.9c0.1-0.3,0.3-0.6,0.5-0.8c0.2-0.2,0.5-0.4,0.8-0.5c0.3-0.1,0.6-0.2,0.9-0.2h59.1
		c0.6,0,1.2,0.3,1.7,0.7c0.4,0.4,0.7,1.1,0.7,1.7c0,0.6-0.3,1.2-0.7,1.7C502.7,362.4,502.1,362.7,501.5,362.7z"/>
	<path class="st9" d="M549.8,362.7H511c-0.6,0-1.2-0.3-1.7-0.7c-0.4-0.4-0.7-1.1-0.7-1.7c0-0.6,0.3-1.2,0.7-1.7
		c0.4-0.4,1.1-0.7,1.7-0.7h38.7c0.6,0,1.2,0.3,1.7,0.7c0.4,0.4,0.7,1.1,0.7,1.7c0,0.3-0.1,0.6-0.2,0.9c-0.1,0.3-0.3,0.6-0.5,0.8
		c-0.2,0.2-0.5,0.4-0.8,0.5C550.4,362.6,550.1,362.7,549.8,362.7z"/>
	<path class="st9" d="M477.1,372.2h-34.7c-0.3,0-0.6-0.1-0.9-0.2c-0.3-0.1-0.6-0.3-0.8-0.5c-0.2-0.2-0.4-0.5-0.5-0.8
		c-0.1-0.3-0.2-0.6-0.2-0.9c0-0.3,0.1-0.6,0.2-0.9c0.1-0.3,0.3-0.6,0.5-0.8c0.2-0.2,0.5-0.4,0.8-0.5c0.3-0.1,0.6-0.2,0.9-0.2h34.7
		c0.3,0,0.6,0.1,0.9,0.2s0.6,0.3,0.8,0.5c0.2,0.2,0.4,0.5,0.5,0.8c0.1,0.3,0.2,0.6,0.2,0.9c0,0.3-0.1,0.6-0.2,0.9
		c-0.1,0.3-0.3,0.6-0.5,0.8c-0.2,0.2-0.5,0.4-0.8,0.5C477.7,372.1,477.4,372.2,477.1,372.2L477.1,372.2z"/>
	<path class="st9" d="M521.2,372.2h-34.7c-0.3,0-0.6-0.1-0.9-0.2c-0.3-0.1-0.6-0.3-0.8-0.5c-0.2-0.2-0.4-0.5-0.5-0.8
		c-0.1-0.3-0.2-0.6-0.2-0.9c0-0.3,0.1-0.6,0.2-0.9c0.1-0.3,0.3-0.6,0.5-0.8c0.2-0.2,0.5-0.4,0.8-0.5c0.3-0.1,0.6-0.2,0.9-0.2h34.7
		c0.3,0,0.6,0.1,0.9,0.2s0.6,0.3,0.8,0.5c0.2,0.2,0.4,0.5,0.5,0.8c0.1,0.3,0.2,0.6,0.2,0.9c0,0.3-0.1,0.6-0.2,0.9
		c-0.1,0.3-0.3,0.6-0.5,0.8c-0.2,0.2-0.5,0.4-0.8,0.5C521.8,372.1,521.5,372.2,521.2,372.2L521.2,372.2z"/>
	<path class="st9" d="M549.8,372.2h-20.1c-0.3,0-0.6-0.1-0.9-0.2c-0.3-0.1-0.6-0.3-0.8-0.5c-0.2-0.2-0.4-0.5-0.5-0.8
		c-0.1-0.3-0.2-0.6-0.2-0.9c0-0.3,0.1-0.6,0.2-0.9c0.1-0.3,0.3-0.6,0.5-0.8c0.2-0.2,0.5-0.4,0.8-0.5c0.3-0.1,0.6-0.2,0.9-0.2h20.1
		c0.6,0,1.2,0.3,1.7,0.7c0.4,0.4,0.7,1.1,0.7,1.7l0,0c0,0.6-0.3,1.2-0.7,1.7C551,371.9,550.4,372.2,549.8,372.2L549.8,372.2z"/>
	<path class="st9" d="M490.8,381.7h-48.4c-0.6,0-1.2-0.3-1.7-0.7c-0.4-0.4-0.7-1.1-0.7-1.7c0-0.6,0.3-1.2,0.7-1.7
		c0.4-0.4,1.1-0.7,1.7-0.7h48.4c0.6,0,1.2,0.3,1.7,0.7c0.4,0.4,0.7,1.1,0.7,1.7l0,0c0,0.6-0.3,1.2-0.7,1.7
		C492,381.5,491.4,381.7,490.8,381.7L490.8,381.7z"/>
	<path class="st9" d="M549.8,324.6h-48.4c-0.3,0-0.6-0.1-0.9-0.2c-0.3-0.1-0.6-0.3-0.8-0.5c-0.2-0.2-0.4-0.5-0.5-0.8
		c-0.1-0.3-0.2-0.6-0.2-0.9c0-0.3,0.1-0.6,0.2-0.9c0.1-0.3,0.3-0.6,0.5-0.8c0.2-0.2,0.5-0.4,0.8-0.5c0.3-0.1,0.6-0.2,0.9-0.2h48.4
		c0.6,0,1.2,0.3,1.7,0.7c0.4,0.4,0.7,1.1,0.7,1.7c0,0.3-0.1,0.6-0.2,0.9c-0.1,0.3-0.3,0.6-0.5,0.8c-0.2,0.2-0.5,0.4-0.8,0.5
		C550.4,324.6,550.1,324.6,549.8,324.6L549.8,324.6z"/>
	<path class="st10" d="M562.4,303.8v3.3H353.5v-3.3c0-3,1.2-5.8,3.3-7.9c2.1-2.1,4.9-3.3,7.9-3.3h186.6c3,0,5.8,1.2,7.9,3.3
		C561.2,298,562.4,300.9,562.4,303.8L562.4,303.8z"/>
	<path class="st1" d="M523,300.2c0,0.5-0.2,1-0.4,1.4c-0.3,0.4-0.7,0.8-1.2,1s-1,0.2-1.5,0.1c-0.5-0.1-1-0.3-1.3-0.7
		c-0.4-0.4-0.6-0.8-0.7-1.3c-0.1-0.5,0-1,0.1-1.5c0.2-0.5,0.5-0.9,1-1.2c0.4-0.3,0.9-0.4,1.4-0.4c0.7,0,1.3,0.3,1.8,0.8
		C522.8,298.8,523,299.5,523,300.2L523,300.2z"/>
	<path class="st1" d="M536.3,300.2c0,0.5-0.2,1-0.4,1.4c-0.3,0.4-0.7,0.8-1.2,1c-0.5,0.2-1,0.2-1.5,0.1c-0.5-0.1-1-0.3-1.3-0.7
		c-0.4-0.4-0.6-0.8-0.7-1.3c-0.1-0.5,0-1,0.1-1.5c0.2-0.5,0.5-0.9,1-1.2c0.4-0.3,0.9-0.4,1.4-0.4c0.7,0,1.3,0.3,1.8,0.8
		C536,298.8,536.3,299.5,536.3,300.2L536.3,300.2z"/>
	<path class="st1" d="M549.5,300.2c0,0.5-0.2,1-0.4,1.4c-0.3,0.4-0.7,0.8-1.2,1c-0.5,0.2-1,0.2-1.5,0.1c-0.5-0.1-1-0.3-1.3-0.7
		c-0.4-0.4-0.6-0.8-0.7-1.3c-0.1-0.5,0-1,0.1-1.5c0.2-0.5,0.5-0.9,1-1.2c0.4-0.3,0.9-0.4,1.4-0.4c0.7,0,1.3,0.3,1.8,0.8
		C549.2,298.8,549.5,299.5,549.5,300.2L549.5,300.2z"/>
	<path class="st11" d="M421.7,222.1h-48.4c-4.2,0-7.6,3.4-7.6,7.6V278c0,4.2,3.4,7.6,7.6,7.6h48.4c4.2,0,7.6-3.4,7.6-7.6v-48.4
		C429.3,225.4,425.9,222.1,421.7,222.1z"/>
	<path class="st12" d="M387.6,244.6l-9.2,9.2l9.2,9.2"/>
	<path class="st12" d="M407.4,244.6l9.2,9.2l-9.2,9.2"/>
	<path class="st12" d="M401.8,244.6l-8.6,18.4"/>
	<path class="st9" d="M553.7,54.2H362.2c-4.8,0-8.7,3.9-8.7,8.7v137.3c0,4.8,3.9,8.7,8.7,8.7h191.6c4.8,0,8.7-3.9,8.7-8.7V62.9
		C562.4,58.1,558.5,54.2,553.7,54.2z"/>
	<path class="st13" d="M520.1,125.4c16.7,0,30.3-13.6,30.3-30.3c0-16.7-13.6-30.3-30.3-30.3c-16.7,0-30.3,13.6-30.3,30.3
		C489.8,111.8,503.4,125.4,520.1,125.4z"/>
	<path class="st4" d="M476.3,208.9H366.2c-3.4,0-6.6-1.3-9-3.7c-2.4-2.4-3.7-5.6-3.7-9v-20.4l48.2-83.5c0.6-1,1.4-1.8,2.4-2.4
		c1-0.6,2.1-0.9,3.3-0.9c1.1,0,2.3,0.3,3.3,0.9c1,0.6,1.8,1.4,2.4,2.4l36.4,63l27,46.8c0.6,1,0.9,2.2,0.9,3.4
		C477.3,206.8,476.9,207.9,476.3,208.9L476.3,208.9z"/>
	<path class="st13" d="M523.8,208.9H418.5l30.9-53.5l16.6-28.8c0.5-0.9,1.3-1.6,2.2-2.2c0.9-0.5,1.9-0.8,2.9-0.8s2,0.3,2.9,0.8
		c0.9,0.5,1.6,1.3,2.2,2.2L523.8,208.9z"/>
	<path class="st14" d="M732.6,449.2h-81.2v122h81.2V449.2z"/>
	<path class="st15" d="M732.6,571.2h31.1v-122h-31.1V571.2z"/>
	<path class="st16" d="M759.9,453.9h-22.8v3.9h22.8V453.9z"/>
	<path class="st16" d="M759.9,462.2h-22.8v3.9h22.8V462.2z"/>
	<path class="st16" d="M759.9,470.6h-22.8v3.9h22.8V470.6z"/>
	<path class="st16" d="M759.9,479h-22.8v3.9h22.8V479z"/>
	<path class="st16" d="M759.9,487.3h-22.8v3.9h22.8V487.3z"/>
	<path class="st16" d="M759.9,495.7h-22.8v3.9h22.8V495.7z"/>
	<path class="st16" d="M759.9,504h-22.8v3.9h22.8V504z"/>
	<path class="st16" d="M759.9,512.4h-22.8v3.9h22.8V512.4z"/>
	<path class="st16" d="M759.9,520.8h-22.8v3.9h22.8V520.8z"/>
	<path class="st16" d="M759.9,529.1h-22.8v3.9h22.8V529.1z"/>
	<path class="st16" d="M759.9,537.5h-22.8v3.9h22.8V537.5z"/>
	<path class="st16" d="M759.9,545.9h-22.8v3.9h22.8V545.9z"/>
	<path class="st16" d="M759.9,554.2h-22.8v3.9h22.8V554.2z"/>
	<path class="st16" d="M759.9,562.6h-22.8v3.9h22.8V562.6z"/>
	<path class="st17" d="M638.3,571.2h41.3c0,0,2.3-7.3-2.7-16.4c0,0-3.3,2.7-13.3,0.9c-2.2,1.9-4.5,3.5-7,4.9
		C653.7,561.9,637.2,565.1,638.3,571.2z"/>
	<path class="st18" d="M641.1,454.8c2.7,15.9,15,69.7,20.2,101.5c9.7,0.8,14.3-0.3,16.8-0.8c-0.5-11.1-1.4-37.6-1.3-49.2
		c0.2-19.6,1.1-45.5-7.5-59.8l-29.1,2.3c0.2,1.5,0.3,2.8,0.5,3.7C640.8,453.3,641,454.1,641.1,454.8z"/>
	<path class="st17" d="M563.6,571.2h41.3c0,0,2.3-7.3-2.7-16.4c0,0-3.3,2.7-13.3,0.9c-2.2,1.9-4.5,3.5-7,4.9
		C579,561.9,562.5,565.1,563.6,571.2z"/>
	<path class="st19" d="M587.7,555.4c5.3,1.4,10.8,1.9,16.3,1.5c2.2-12.8,5.7-40.9,8.8-54c4.8-20.5,9.6-48.6,6.3-58.7l-28.6-7.2
		C590.4,437.8,588.1,524,587.7,555.4z"/>
	<path class="st19" d="M701.6,407.6c-0.6-5.7-1.2-9.8-1.2-9.8l-32,7.8l-27.1,6.2c-10.1,2.2-22.2,4.9-32.9,7.4
		c-12,2.7-20,11.9-17.4,23.9l3,14.6c16.8-0.2,95.9-7.8,102.7-11.2C704.3,442.6,706.6,429,701.6,407.6z"/>
	<path class="st18" d="M749.3,407.6c-0.6-4-1.7-8-3.3-11.7l-29.9,9.8l-27.1,6.2c-10.1,2.2-22.2,4.9-32.9,7.4
		c-12,2.7-20,11.9-17.4,23.9l3,14.6c16.8-0.2,87.1-2.7,102.7-11.2C751.8,442.4,754.3,429,749.3,407.6z"/>
	<path class="st20" d="M659.8,361.8c0,0,14.2-6.4,18.1,0c2.1,3.5,0.7,10.1-4.2,12.8c-4.8,2.7-32.2,14.3-58,20.8
		c-0.8-2.5-1.8-5-2.9-7.4c8.1-3.5,15.8-7.9,23.1-12.9C643.5,370,651.5,365.5,659.8,361.8L659.8,361.8z"/>
	<path class="st20" d="M663.4,317.5l-12.2,48.6c0,0,1.3,12.3,13.7,6.3c12.4-6,20.6-44.7,20.6-44.7L663.4,317.5z"/>
	<path class="st4" d="M684,344.7c-1.5-0.4-2.9-0.8-4.3-1.2c-1.4-0.4-2.8-0.8-4-1.3c-11.6-4-17.8-8.7-17.8-8.7
		c3.6-15.8,8-26.4,11.9-33.4c0.1-0.2,0.2-0.3,0.3-0.5l0.3-0.5c2.2-3.5,5.1-6.5,8.5-8.8c0.3-0.2,0.7-0.5,1-0.7l1.4,25.4l0.2,2.6
		L684,344.7z"/>
	<path class="st21" d="M684,344.7c-1.5-0.4-2.9-0.8-4.3-1.2c-1.4-0.4-2.8-0.8-4-1.3c2.4-17.1,4.6-27.8,4.6-27.8l1.2,3.1L684,344.7z"
		/>
	<path class="st4" d="M755.8,300.8c-0.3,7.5-1.6,19.6-2.8,31.7c-0.4,3.8-0.7,7.7-1,11.4c-0.2,2.3-3.7,14.7-3.8,16.9
		c-0.6,10.6-5.8,18.5-0.9,34.6c0.9,2.4,1.4,4.9,1.5,7.4c0,1.1-1.4,2.3-2,2.6c-2.1,1.2-6.1,2-11,2.6h0c-10.2,1-20.4,1.5-30.6,1.4
		c-10.6,0-26.4-1.7-28.4-4.3c-1.8-2.4-0.1-6,0.7-10.9c3.9-22.1,2.5-33.6,2.3-49.6c0-0.4,0-0.8,0-1.2c-0.4-24.6-2-45.7-0.9-53.3
		c0.3-0.2,0.7-0.5,1-0.7c1.7-1.1,3.3-2.2,4.9-3.1c0.1-0.1,0.3-0.2,0.5-0.3c0.5-0.3,1-0.5,1.5-0.8c0.2-0.1,0.4-0.2,0.6-0.3
		c3.8-1.8,7.8-3.3,11.8-4.7c0.4-0.1,0.7-0.2,1-0.3c2.8-0.2,5.9-0.2,9.2-0.1c2.9,0.1,7.3,0.5,12,1.1h0c5.4,0.6,10.7,1.6,16,3
		c0,0,0.1,0,0.1,0c0.9,0.3,6.6,2.4,12.6,8.8C752.2,295.3,754.1,298,755.8,300.8L755.8,300.8z"/>
	<path class="st21" d="M747.3,395.4c0.9,2.4,1.4,4.9,1.5,7.4c0,1.1-1.4,2.3-2,2.6c-2.1,1.2-6.1,2-11,2.6c2-0.2,5.5-3.5,5.5-6.4
		c0-2-2.6-15.7-1.9-24.6c0.7-8.8,2.2-22.9-0.6-34.1c-2.8-11.2-5.3-26-5.3-26l15.4,9.3c0,0,2,2.8,4.2,6.2c-0.4,3.8-0.7,7.7-1,11.4
		C751.8,346.2,742.4,379.3,747.3,395.4z"/>
	<path class="st18" d="M679.5,235.8c0,0,1.3,16.1,6.7,17.2c5.4,1.1,4-5.8,4-5.8l-0.7-7.7L679.5,235.8z"/>
	<path class="st20" d="M704.1,294.2c-10.5-1.2-6.6-11.4-5.1-13.8c0.4-0.1,2.2-0.7,2.3-0.8c0,0,0,0,0,0c0.4-0.3,0.7-0.7,0.8-1.2
		c1-2.7,0.6-8,0.5-8.4v-1c0.2-0.6,0.3-1.2,0.5-1.8l5.5-4.3l11.6-9.2c0,0-3.1,15.3-0.6,25c0.1,0.5,0.3,0.9,0.5,1.3
		c0.3,0.4,0.6,0.7,1,1c0,0,0,0,0,0c0.4,0.2,0.7,0.4,1.2,0.4C725.3,282.8,721.3,296.2,704.1,294.2z"/>
	<path class="st22" d="M713.3,263.5c0,0-0.1,10.2-11.2,14.9c1-2.7,0.6-8,0.5-8.4l4.6-3.6L713.3,263.5z"/>
	<path class="st20" d="M682,238.1c0,0,2.4,33.5,11.5,36.3c0,0,11.5,1.1,19.8-10c2.4-3.2,5.4-3.9,6.4-7.8c1.6-6.3,3.8-17.9,1-24.9
		C716.5,221.7,682.4,213.8,682,238.1z"/>
	<path class="st18" d="M720.7,226.2c-0.1-6.1-6.3-8.3-6.3-8.3c-6.1-2.9-18.9-1.6-32,1.3c-3.1,0.7-6.9-1.2-9.1,0.3
		c-2.6,1.8,0,10,0,10c5.1,15.3,23.7,10.3,29.3,8.5c1.3,3.9,1.2,9.4,4.5,12.3c1.9,1.6,5.2,1.7,8.5,1.1c0.4,0.8,2,1.5,2.3,2.5
		c1.1,3.6,0.9,9.2,0.9,13.5l1.6-0.8C720.6,265.4,736.9,226.7,720.7,226.2z"/>
	<path class="st23" d="M691.3,249.3c0.5,2.8-0.9,5.3-3.1,5.7c-2.2,0.4-4.3-1.6-4.8-4.4c-0.5-2.8,0.9-5.3,3.1-5.7
		C688.7,244.6,690.8,246.5,691.3,249.3z"/>
	<path class="st23" d="M702.2,247.3c0.5,2.8-0.9,5.3-3.1,5.7c-2.2,0.4-4.3-1.6-4.8-4.4c-0.5-2.8,0.9-5.3,3.1-5.7
		C699.6,242.6,701.7,244.5,702.2,247.3z"/>
	<path class="st23" d="M691.3,249.3c0,0,0.5-0.8,3-0.6"/>
	<path class="st23" d="M702.3,247.9l9.3-1.5"/>
	<path class="st20" d="M712.3,258.3c6.4,2.5,8.4-13.4,2.3-14.1c-4.6-0.5-4.8,5.9-4.8,5.9S708.6,256.9,712.3,258.3z"/>
	<g class="st24">
		<path class="st25" d="M714.4,246.6c0,0-3.8,2-1.4,8.2"/>
		<path class="st25" d="M715.4,249.6c-0.7,0-1.4,0.2-1.9,0.7c-0.6,0.4-1,1-1.2,1.7"/>
	</g>
	<path class="st20" d="M774.1,368.2L774.1,368.2c-2.8,3.3-13.5,5.7-18.7,1.1c-1.6-1.4-3.5-5.2-5.2-10c-4.6-12.1-8.9-30.1-8.9-30.1
		l24-12.3c0,0,3.1,13.8,5.7,27c0,0,0,0.1,0.1,0.4c0.9,4.2,1.7,8.4,2.3,11.9c0,0.1,0,0.2,0,0.3C774.1,360.4,774.3,364.3,774.1,368.2
		L774.1,368.2z"/>
	<path class="st4" d="M732.2,312.5c2.3,9.6,9.6,27.9,9.6,27.9c5.1,0.8,11.9-0.1,17.6-2.1c4.2-1.6,8-4.1,11.2-7.3
		c0,0-4.8-13.6-9.2-23.3c-3.9-8.8-6.2-12-7.9-13.8c-2.8-2.8-6-5.2-9.5-7.1L732.2,312.5z"/>
	<path class="st4" d="M762.5,318.8l-14.1-6.1l-11.1-28.6c0,0,2,0.6,4.7,1.7h0c0.1,0,0.2,0.1,0.4,0.1c0.1,0,0.1,0.1,0.2,0.1
		c2.4,1.1,11.7,6.6,18.1,26.5l0.2,0.5c0.7,2.3,1.2,4.1,1.5,5.1c0,0.1,0.1,0.2,0.1,0.3C762.5,318.5,762.5,318.6,762.5,318.8z"/>
	<path class="st20" d="M774.1,368.2L774.1,368.2c-0.2,1.8-0.7,3-1.6,3.5c-0.1,0.1-2.1,1.3-2.2,1.3c-4.8,2.9-9.7,5.5-14.9,7.7
		c-17,7.1-34.3,13.3-51.9,18.7c-0.9-2.5-2-4.9-3.2-7.2c7.9-3.9,15.5-8.5,22.5-13.8c11.2-8.5,27.3-18.9,27.3-18.9l4.1-4.8
		c0,0,14.4-13.3,16.8-10.6c0,0,0,0.1,0.1,0.4c0.3,1.4,1.5,6.5,2.3,11.9c0,0.1,0,0.2,0,0.3C774.1,360.4,774.3,364.3,774.1,368.2
		L774.1,368.2z"/>
	<path class="st20" d="M702,391.3c-1.7,1-3.7,1.4-5.7,1.1c-1.6-0.3-2.2-1-3.4-1.2c-2-0.2-4-0.7-5.9-1.4c-1.6-0.8-2.2-0.8-2.1,0.7
		c0.1,1.6,3.1,2.9,3.9,3.3c0.8,0.5,1.4,1.2,2,2c0.1,0.2-5.1,2.9-6.5,2.3c-0.2,0.6-0.3,1.3-0.2,2c0.2,0.7,1.3,0.9,1.4,1.3
		c0.1,0.4-0.2,1.1,0,1.6c0.2,0.6,1.2,0.6,1.6,1.5s0,0.9,0.2,1.9c0.3,0.9,1.5,1.1,1.7,1.6c0.2,0.5,0.1,1.1,0.6,1.4
		c0.5,0.3,5.2-1.2,6.9-1.9c1.7-0.7,6.3-7.3,11.4-9.6L702,391.3z"/>
	<path class="st26" d="M726,420.7h-36.5v-3.6H726c0.2,0,0.5,0,0.7,0.1c0.2,0.1,0.4,0.2,0.6,0.4c0.2,0.2,0.3,0.4,0.4,0.6
		c0.1,0.2,0.1,0.4,0.1,0.7c0,0.5-0.2,0.9-0.5,1.3C726.9,420.5,726.4,420.7,726,420.7L726,420.7z"/>
	<path class="st26" d="M706.2,420.7h-91.4c-0.5,0-1.1-0.2-1.5-0.5c-0.4-0.3-0.7-0.8-0.9-1.3l-18.7-67.3c-0.1-0.3-0.1-0.7,0-1.1
		c0.1-0.4,0.2-0.7,0.4-1c0.2-0.3,0.5-0.5,0.8-0.7c0.3-0.2,0.7-0.2,1-0.2h88.3c1,0,2,0.3,2.8,0.9c0.8,0.6,1.4,1.5,1.6,2.4l18.6,67.1
		c0.1,0.2,0.1,0.4,0,0.6c0,0.2-0.1,0.4-0.2,0.5c-0.1,0.2-0.3,0.3-0.5,0.4C706.6,420.7,706.4,420.7,706.2,420.7z"/>
	<path class="st27" d="M702.9,420.7h-91.4c-0.5,0-1.1-0.2-1.5-0.5c-0.4-0.3-0.7-0.8-0.9-1.3l-18.7-67.3c-0.1-0.3-0.1-0.7,0-1.1
		c0.1-0.4,0.2-0.7,0.4-1c0.2-0.3,0.5-0.5,0.8-0.7c0.3-0.2,0.7-0.2,1-0.2h88.3c1,0,2,0.3,2.8,0.9c0.8,0.6,1.4,1.5,1.6,2.4l18.6,67.1
		c0.1,0.2,0.1,0.4,0,0.6c0,0.2-0.1,0.4-0.2,0.5c-0.1,0.2-0.3,0.3-0.5,0.4C703.3,420.7,703.1,420.7,702.9,420.7z"/>
	<path class="st28" d="M340.9,377.2l10.6-10.8c0,0,0.4-4.8,0.9-5.9c0.6-1,2.1-4.8,2.8-5.2c0.7-0.2,1.5-0.2,2.2,0
		c0.7-0.2,1.4-0.4,2.1-0.5c0.7,0.1,1.3,0.3,1.9,0.6c0,0,1.6-0.1,2.2-0.1c0.3,0,0.6,0,0.9,0.2c1.2-1.4,2.4-2.7,3.8-3.9
		c1.2-1,3.1-2.8,3.7-2.8c0.5,0,0.8,0.9,0.4,1.9c-0.6,1-1.2,1.8-2.1,2.6l-4.8,7.3c0.4-0.2,0.9-0.4,1.3-0.6c0.4-0.3,3.4-3,3.6-3.1
		c0.2-0.1,1.5-1,2.3-0.1c0.8,0.9-5,7.9-6,8.8c-0.9,0.9-6.3,3.6-6.3,3.6s-5.6,10.2-6.2,10.8C353.6,380.6,340.9,377.2,340.9,377.2z"/>
	<path class="st28" d="M350.8,327.2c0,0-5.9,34.2-11.5,35c0,0-22.2,0.9-27.2-26.1c-4.3-23.4,12.9-28.4,21-26.6
		C341.2,311.4,352.5,312.5,350.8,327.2z"/>
	<path class="st28" d="M331.2,356.7c0,0-3.1,4.2-4.2,14.4c-6.1,0.6-12.3-0.4-17.8-3.1c2.9-9.7,4.7-19.8,5.2-29.9"/>
	<path class="st18" d="M324.9,303.9c-12.1,2.7-11.2,10.2-11.2,10.2c-5.7,1.4-6.9,3.8-6.9,14.2c0,10.5,3.8,23.1,5.9,24.1
		c2.1,1,14,1.1,15,0.7c1-0.4,5.1-10,4.2-11.7c-1-1.7,0-8.4,2.8-8.6s2.2,4,2.2,4l2.3-0.5l1.8-4.3c16,1,20.2-17.3,20.2-17.3
		C357.3,312.3,337.1,301.2,324.9,303.9z"/>
	<path class="st20" d="M190.2,535.7l12.3,1.8l-4.1,14.3l-13.3-3.4c0,0-5.4-7.3,2.8-12.8C188.6,535.4,189.4,535.4,190.2,535.7z"/>
	<path d="M281.8,498.8l-18.1-54.8c0,0-5.5-2-8.3,0c0,0-18.8,10.1-16.8,39c1.5,21.8,6.1,45.4,8,54.9l-48.3-1.8
		c-1.7,2.3-2.9,5-3.2,7.9c-0.4,2.9,0,5.8,1.1,8.4c0,0,60.6,16.3,69.2,17.8c6.9,1.2,14.5,2.2,18.2-1
		C290,563.8,281.8,498.8,281.8,498.8z"/>
	<path class="st20" d="M247.3,535.7l12.3,1.8l-4.1,14.3l-13.3-3.4c0,0-5.4-7.3,2.8-12.8C245.8,535.4,246.6,535.4,247.3,535.7z"/>
	<path class="st27" d="M242.9,543.2c-0.3,2.8,2.2,5.4,1.7,6.1c-0.5,0.7-8.7,14.5-8.7,14.5s6.2,2.7,5.2,6.6h-15.8c0,0-4.1-3.7-4-9
		c0.8-4,2.1-7.9,3.9-11.6c2.8-5.4,9.2-17.7,9.2-17.7c1.7-0.5,3.6-0.5,5.3,0.1c2.7,0.8,5.2,1.9,7.6,3.4
		C247.3,535.7,243.5,536.2,242.9,543.2z"/>
	<path class="st18" d="M369.2,557.8c-3.9-14.5-40.5-76.6-52.9-93.3c-25.5-11.1-52.6-20.4-52.6-20.4c-11.2,2.7-16.7,25.3-10.4,40.4
		c4.4,10.3,32.1,36.4,49,51.7l-47.1-0.1c0,0-5.5,8.3-0.5,16.2c0,0,78.3,17.8,85.2,18.8c6.9,1,22.3,0,22.3,0S372.5,570.1,369.2,557.8
		z"/>
	<path class="st27" d="M185.7,543.2c-0.3,2.8,2.2,5.4,1.7,6.1c-0.5,0.7-8.7,14.5-8.7,14.5s6.2,2.7,5.2,6.6h-15.8c0,0-4.1-3.7-4-9
		c0.8-4,2.1-7.9,3.9-11.6c2.8-5.4,9.2-17.7,9.2-17.7c1.7-0.5,3.6-0.5,5.3,0.1c2.7,0.8,5.2,1.9,7.6,3.4
		C190.2,535.7,186.4,536.2,185.7,543.2z"/>
	<path class="st28" d="M428.2,366.7l-25.2,44.4l-18.1-18l-15,22.3l4.3,2.1l-1.6,1.3c0,0,34.9,17,39.1,13.2
		c4.2-3.7,23.7-60.3,23.7-60.3L428.2,366.7z"/>
	<path class="st27" d="M388,395.9c0,0-4.8,20.1-14.3,29.6l-24.4-9.3c0,0-11.3,19-22.4,33.6c-4.3,5.6-5.7,13.6-10.7,14.6
		c-0.3-0.1-0.6-0.2-0.9-0.3c-13.6-4.1-33.6,0.2-50.1-5.9c-18.2-6.8-14.7-10.6-14.7-10.6s11.1-19.9,17.3-41c2.4-8.1,4.4-16.4,6-24.7
		c1.1-5.8,4-11.2,8.3-15.3c4.3-4.1,9.8-6.8,15.7-7.6c0.1,0,0.3,0,0.4-0.1c13.8-1.8,50,2.5,57,5.5C362.4,367.5,388,395.9,388,395.9z"
		/>
	<path class="st29" d="M349.4,416.3c0,0-11.3,19-22.4,33.6c-4.3,5.6-5.7,13.6-10.7,14.6c2.2-0.8,5.8-12.3,7.1-14.9
		c1.3-2.6,3.4-5.2,7.8-14.2c4.5-9.1,10.5-22.4,10.5-22.4L349.4,416.3z"/>
	<path class="st30" d="M302.3,536.1c8.2-0.1,16.5,1.1,24.3,3.5"/>
	<path class="st28" d="M447,350.4c-0.4,0-3,2-4.2,3.1l1.4-2.8c0.9-0.9,1.8-1.8,2.6-2.8c0.7-1,0.3-2-0.2-2.1c-0.4,0-2.7,1.8-4,2.8
		l0.3-0.6c0.9-0.9,1.8-1.8,2.6-2.8c0.7-1,0.3-2-0.2-2.1c-0.5-0.1-4.9,3.6-4.9,3.6l-2.1,2.9l1.6-3.1c0.5-0.7,1-1.4,1.4-2.2
		c0.6-1.1,0.2-1.5-0.2-1.9c-0.3-0.4-3.3,1.8-4,2.7c-1.2,1.6-2.3,3.2-3.3,4.9l-2.5,5.1c-0.2-1.5-0.4-4-0.6-5.6
		c-0.3-2.3-2.4-2.9-2.4-1.7c-0.1,1.1-1.2,6.7-1,9.7c0.3,3,0.8,5,1,6.7c0.2,1.7-1.6,5.1-1.6,5.1s7,4.4,8.2,3.1c1.8-1.9,3.4-4,4.8-6.2
		c1.1-2,2.1-4.1,2.7-6.2l2.2-4.7c0.9-0.9,1.8-1.8,2.6-2.8C447.9,351.4,447.6,350.4,447,350.4z"/>
	<path class="st31" d="M850.4,208.9H768c-1.3,0-2.5,0.2-3.7,0.7c-1.2,0.5-2.2,1.2-3.1,2.1c-0.9,0.9-1.6,1.9-2.1,3.1
		c-0.5,1.2-0.7,2.4-0.7,3.7V238c0,2.3,0.8,4.6,2.4,6.3c1.5,1.7,3.7,2.9,6,3.2c0.3,0,0.6,0.2,0.9,0.5c0.2,0.3,0.3,0.6,0.3,0.9v10.7
		c0,0.1,0,0.3,0.1,0.4c0.1,0.1,0.2,0.2,0.3,0.2c0.1,0,0.3,0,0.4,0c0.1,0,0.2-0.1,0.3-0.2l8.4-11.7c0.1-0.2,0.3-0.3,0.5-0.4
		c0.2-0.1,0.4-0.2,0.6-0.2h71.7c2.5,0,5-1,6.8-2.8c1.8-1.8,2.8-4.2,2.8-6.8v-19.5c0-2.5-1-5-2.8-6.8
		C855.3,209.9,852.9,208.9,850.4,208.9L850.4,208.9z"/>
	<path class="st31" d="M780.6,228.2c0,0.6-0.2,1.2-0.5,1.7c-0.3,0.5-0.8,0.9-1.4,1.2c-0.6,0.2-1.2,0.3-1.8,0.2
		c-0.6-0.1-1.2-0.4-1.6-0.9c-0.4-0.4-0.7-1-0.9-1.6c-0.1-0.6-0.1-1.2,0.2-1.8c0.2-0.6,0.6-1.1,1.2-1.4c0.5-0.3,1.1-0.5,1.7-0.5
		c0.4,0,0.8,0.1,1.2,0.2c0.4,0.2,0.7,0.4,1,0.7c0.3,0.3,0.5,0.6,0.7,1C780.5,227.4,780.6,227.8,780.6,228.2L780.6,228.2z"/>
	<path class="st31" d="M796.5,228.2c0,0.6-0.2,1.2-0.5,1.7c-0.3,0.5-0.8,0.9-1.4,1.2c-0.6,0.2-1.2,0.3-1.8,0.2
		c-0.6-0.1-1.2-0.4-1.6-0.9c-0.4-0.4-0.7-1-0.9-1.6c-0.1-0.6-0.1-1.2,0.2-1.8c0.2-0.6,0.6-1.1,1.2-1.4c0.5-0.3,1.1-0.5,1.7-0.5
		c0.4,0,0.8,0.1,1.2,0.2c0.4,0.2,0.7,0.4,1,0.7c0.3,0.3,0.5,0.6,0.7,1C796.4,227.4,796.5,227.8,796.5,228.2L796.5,228.2z"/>
	<path class="st31" d="M812.3,228.2c0,0.6-0.2,1.2-0.5,1.7c-0.3,0.5-0.8,0.9-1.4,1.2c-0.6,0.2-1.2,0.3-1.8,0.2
		c-0.6-0.1-1.2-0.4-1.6-0.9c-0.4-0.4-0.7-1-0.9-1.6c-0.1-0.6-0.1-1.2,0.2-1.8c0.2-0.6,0.6-1.1,1.2-1.4c0.5-0.3,1.1-0.5,1.7-0.5
		c0.4,0,0.8,0.1,1.2,0.2c0.4,0.2,0.7,0.4,1,0.7c0.3,0.3,0.5,0.6,0.7,1C812.2,227.4,812.3,227.8,812.3,228.2L812.3,228.2z"/>
	<path class="st31" d="M828.2,228.2c0,0.6-0.2,1.2-0.5,1.7c-0.3,0.5-0.8,0.9-1.4,1.2c-0.6,0.2-1.2,0.3-1.8,0.2
		c-0.6-0.1-1.2-0.4-1.6-0.9c-0.4-0.4-0.7-1-0.9-1.6c-0.1-0.6-0.1-1.2,0.2-1.8c0.2-0.6,0.6-1.1,1.2-1.4c0.5-0.3,1.1-0.5,1.7-0.5
		c0.4,0,0.8,0.1,1.2,0.2c0.4,0.2,0.7,0.4,1,0.7c0.3,0.3,0.5,0.6,0.7,1C828.1,227.4,828.2,227.8,828.2,228.2L828.2,228.2z"/>
	<path class="st31" d="M844,228.2c0,0.6-0.2,1.2-0.5,1.7c-0.3,0.5-0.8,0.9-1.4,1.2c-0.6,0.2-1.2,0.3-1.8,0.2
		c-0.6-0.1-1.2-0.4-1.6-0.9c-0.4-0.4-0.7-1-0.9-1.6c-0.1-0.6-0.1-1.2,0.2-1.8c0.2-0.6,0.6-1.1,1.2-1.4c0.5-0.3,1.1-0.5,1.7-0.5
		c0.4,0,0.8,0.1,1.2,0.2c0.4,0.2,0.7,0.4,1,0.7c0.3,0.3,0.5,0.6,0.7,1C843.9,227.4,844,227.8,844,228.2L844,228.2z"/>
	<path class="st31" d="M199.3,294.3h82.4c1.3,0,2.5,0.2,3.7,0.7c1.2,0.5,2.2,1.2,3.1,2.1c0.9,0.9,1.6,1.9,2.1,3.1
		c0.5,1.2,0.7,2.4,0.7,3.7v19.5c0,2.3-0.8,4.6-2.4,6.3c-1.5,1.7-3.7,2.9-6,3.2c-0.3,0-0.6,0.2-0.9,0.5c-0.2,0.3-0.3,0.6-0.3,0.9
		v10.7c0,0.1,0,0.3-0.1,0.4c-0.1,0.1-0.2,0.2-0.3,0.2c-0.1,0-0.3,0-0.4,0c-0.1,0-0.2-0.1-0.3-0.2l-8.4-11.7
		c-0.1-0.2-0.3-0.3-0.5-0.4c-0.2-0.1-0.4-0.2-0.6-0.2h-71.7c-2.5,0-5-1-6.8-2.8c-1.8-1.8-2.8-4.2-2.8-6.8v-19.5c0-2.5,1-5,2.8-6.8
		C194.3,295.3,196.7,294.3,199.3,294.3L199.3,294.3z"/>
	<path class="st31" d="M269,313.5c0,0.6,0.2,1.2,0.5,1.7c0.3,0.5,0.8,0.9,1.4,1.2c0.6,0.2,1.2,0.3,1.8,0.2c0.6-0.1,1.2-0.4,1.6-0.9
		c0.4-0.4,0.7-1,0.9-1.6c0.1-0.6,0.1-1.2-0.2-1.8c-0.2-0.6-0.6-1.1-1.2-1.4c-0.5-0.3-1.1-0.5-1.7-0.5c-0.8,0-1.6,0.3-2.2,0.9
		C269.4,311.9,269,312.7,269,313.5L269,313.5z"/>
	<path class="st31" d="M253.2,313.5c0,0.6,0.2,1.2,0.5,1.7c0.3,0.5,0.8,0.9,1.4,1.2c0.6,0.2,1.2,0.3,1.8,0.2
		c0.6-0.1,1.2-0.4,1.6-0.9c0.4-0.4,0.7-1,0.9-1.6c0.1-0.6,0.1-1.2-0.2-1.8c-0.2-0.6-0.6-1.1-1.2-1.4c-0.5-0.3-1.1-0.5-1.7-0.5
		c-0.8,0-1.6,0.3-2.2,0.9C253.5,311.9,253.2,312.7,253.2,313.5L253.2,313.5z"/>
	<path class="st31" d="M237.3,313.5c0,0.6,0.2,1.2,0.5,1.7c0.3,0.5,0.8,0.9,1.4,1.2c0.6,0.2,1.2,0.3,1.8,0.2
		c0.6-0.1,1.2-0.4,1.6-0.9c0.4-0.4,0.7-1,0.9-1.6c0.1-0.6,0.1-1.2-0.2-1.8c-0.2-0.6-0.6-1.1-1.2-1.4c-0.5-0.3-1.1-0.5-1.7-0.5
		c-0.8,0-1.6,0.3-2.2,0.9C237.7,311.9,237.3,312.7,237.3,313.5L237.3,313.5z"/>
	<path class="st31" d="M221.5,313.5c0,0.6,0.2,1.2,0.5,1.7c0.3,0.5,0.8,0.9,1.4,1.2c0.6,0.2,1.2,0.3,1.8,0.2
		c0.6-0.1,1.2-0.4,1.6-0.9c0.4-0.4,0.7-1,0.9-1.6c0.1-0.6,0.1-1.2-0.2-1.8c-0.2-0.6-0.6-1.1-1.2-1.4s-1.1-0.5-1.7-0.5
		c-0.8,0-1.6,0.3-2.2,0.9C221.8,311.9,221.5,312.7,221.5,313.5L221.5,313.5z"/>
	<path class="st31" d="M205.6,313.5c0,0.6,0.2,1.2,0.5,1.7c0.3,0.5,0.8,0.9,1.4,1.2c0.6,0.2,1.2,0.3,1.8,0.2
		c0.6-0.1,1.2-0.4,1.6-0.9c0.4-0.4,0.7-1,0.9-1.6c0.1-0.6,0.1-1.2-0.2-1.8c-0.2-0.6-0.6-1.1-1.2-1.4c-0.5-0.3-1.1-0.5-1.7-0.5
		c-0.4,0-0.8,0.1-1.2,0.2c-0.4,0.2-0.7,0.4-1,0.7c-0.3,0.3-0.5,0.6-0.7,1C205.7,312.7,205.6,313.1,205.6,313.5L205.6,313.5z"/>
	<path class="st32" d="M696.9,164H546.7c-4,0-7.8-1.6-10.6-4.4c-2.8-2.8-4.4-6.6-4.4-10.6l0,0c0-4,1.6-7.8,4.4-10.6
		c2.8-2.8,6.6-4.4,10.6-4.4h150.2c4,0,7.8,1.6,10.6,4.4c2.8,2.8,4.4,6.6,4.4,10.6s-1.6,7.8-4.4,10.6
		C704.7,162.4,700.9,164,696.9,164z"/>
	<path class="st33" d="M694.7,148c0,1.6-0.5,3.1-1.3,4.4c-0.9,1.3-2.1,2.3-3.6,2.9c-1.5,0.6-3.1,0.8-4.6,0.5c-1.5-0.3-3-1.1-4.1-2.2
		c-1.1-1.1-1.9-2.5-2.2-4.1c-0.3-1.5-0.1-3.1,0.5-4.6c0.6-1.5,1.6-2.7,2.9-3.6c1.3-0.9,2.9-1.3,4.4-1.3c1,0,2.1,0.2,3.1,0.6
		c1,0.4,1.8,1,2.6,1.7c0.7,0.7,1.3,1.6,1.7,2.6C694.5,145.9,694.7,146.9,694.7,148L694.7,148z"/>
	<path class="st34" d="M692.4,153.6l4.4,4.4"/>
	<path class="st35" d="M473.2,510.2h-45.4c-4.5,0-8.2,3.7-8.2,8.2v45.4c0,4.5,3.7,8.2,8.2,8.2h45.4c4.5,0,8.2-3.7,8.2-8.2v-45.4
		C481.4,513.8,477.7,510.2,473.2,510.2z"/>
	<path class="st36" d="M461.9,510.2h-45.4c-4.5,0-8.2,3.7-8.2,8.2v45.4c0,4.5,3.7,8.2,8.2,8.2h45.4c4.5,0,8.2-3.7,8.2-8.2v-45.4
		C470.1,513.8,466.5,510.2,461.9,510.2z"/>
	<path class="st4" d="M432,529.4l17.7,10.2c0.2,0.1,0.5,0.4,0.6,0.6c0.1,0.2,0.2,0.5,0.2,0.8c0,0.3-0.1,0.6-0.2,0.8
		c-0.1,0.2-0.4,0.5-0.6,0.6L432,552.7c-0.2,0.1-0.5,0.2-0.8,0.2c-0.3,0-0.6-0.1-0.8-0.2c-0.2-0.1-0.5-0.4-0.6-0.6
		c-0.1-0.2-0.2-0.5-0.2-0.8v-20.5c0-0.3,0.1-0.6,0.2-0.8c0.1-0.2,0.4-0.5,0.6-0.6c0.2-0.1,0.5-0.2,0.8-0.2
		C431.4,529.2,431.7,529.2,432,529.4L432,529.4z"/>
	<path class="st35" d="M865.2,491.2h-59.3c-5.9,0-10.7,4.8-10.7,10.7v59.3c0,5.9,4.8,10.7,10.7,10.7h59.3c5.9,0,10.7-4.8,10.7-10.7
		v-59.3C875.9,496,871.1,491.2,865.2,491.2z"/>
	<path class="st36" d="M850.5,491.2h-59.3c-5.9,0-10.7,4.8-10.7,10.7v59.3c0,5.9,4.8,10.7,10.7,10.7h59.3c5.9,0,10.7-4.8,10.7-10.7
		v-59.3C861.2,496,856.4,491.2,850.5,491.2z"/>
	<path class="st4" d="M830.5,511c0,1.9-0.6,3.8-1.6,5.4c-1.1,1.6-2.6,2.8-4.4,3.6c-1.8,0.7-3.7,0.9-5.6,0.6c-1.9-0.4-3.6-1.3-5-2.7
		c-1.4-1.4-2.3-3.1-2.7-5c-0.4-1.9-0.2-3.8,0.6-5.6c0.7-1.8,2-3.3,3.6-4.4c1.6-1.1,3.5-1.6,5.4-1.6c1.3,0,2.5,0.3,3.7,0.7
		c1.2,0.5,2.2,1.2,3.1,2.1c0.9,0.9,1.6,2,2.1,3.1C830.3,508.5,830.5,509.7,830.5,511L830.5,511z"/>
	<path class="st4" d="M841,543.8v14.3c0,0.6-0.2,1.2-0.7,1.7c-0.4,0.4-1,0.7-1.7,0.7h-35.7c-0.6,0-1.2-0.2-1.7-0.7
		c-0.4-0.4-0.7-1-0.7-1.7v-14.3c0-2.7,0.5-5.3,1.5-7.7c1-2.5,2.5-4.7,4.4-6.6c1.9-1.9,4.1-3.4,6.6-4.4c2.5-1,5.1-1.5,7.7-1.5
		c5.4,0,10.5,2.1,14.3,5.9C838.9,533.3,841,538.5,841,543.8z"/>
	<path class="st13" d="M640.4,181.3h-31.7c-0.6,0-1.2-0.3-1.7-0.7c-0.4-0.4-0.7-1.1-0.7-1.7c0-0.6,0.3-1.2,0.7-1.7
		c0.4-0.4,1.1-0.7,1.7-0.7h31.7c0.6,0,1.2,0.3,1.7,0.7c0.4,0.4,0.7,1.1,0.7,1.7c0,0.6-0.3,1.2-0.7,1.7
		C641.6,181,641,181.3,640.4,181.3z"/>
	<path class="st13" d="M672.1,181.3h-23c-0.3,0-0.6-0.1-0.9-0.2c-0.3-0.1-0.6-0.3-0.8-0.5c-0.2-0.2-0.4-0.5-0.5-0.8
		c-0.1-0.3-0.2-0.6-0.2-0.9c0-0.6,0.3-1.2,0.7-1.7c0.4-0.4,1.1-0.7,1.7-0.7h23c0.6,0,1.2,0.3,1.7,0.7c0.4,0.4,0.7,1.1,0.7,1.7l0,0
		c0,0.3-0.1,0.6-0.2,0.9c-0.1,0.3-0.3,0.6-0.5,0.8c-0.2,0.2-0.5,0.4-0.8,0.5C672.7,181.2,672.4,181.3,672.1,181.3L672.1,181.3z"/>
	<path class="st13" d="M622.1,191.8h-13.5c-0.3,0-0.6-0.1-0.9-0.2c-0.3-0.1-0.6-0.3-0.8-0.5c-0.2-0.2-0.4-0.5-0.5-0.8
		c-0.1-0.3-0.2-0.6-0.2-0.9l0,0c0-0.6,0.3-1.2,0.7-1.7c0.4-0.4,1.1-0.7,1.7-0.7h13.5c0.6,0,1.2,0.3,1.7,0.7c0.4,0.4,0.7,1.1,0.7,1.7
		l0,0c0,0.6-0.3,1.2-0.7,1.7C623.4,191.5,622.8,191.8,622.1,191.8z"/>
	<path class="st13" d="M672.1,191.8h-42c-0.6,0-1.2-0.3-1.7-0.7c-0.4-0.4-0.7-1.1-0.7-1.7c0-0.6,0.3-1.2,0.7-1.7
		c0.4-0.4,1.1-0.7,1.7-0.7h42c0.6,0,1.2,0.3,1.7,0.7c0.4,0.4,0.7,1.1,0.7,1.7l0,0c0,0.3-0.1,0.6-0.2,0.9c-0.1,0.3-0.3,0.6-0.5,0.8
		c-0.2,0.2-0.5,0.4-0.8,0.5C672.7,191.7,672.4,191.8,672.1,191.8L672.1,191.8z"/>
	<path class="st13" d="M650.5,202.3h-41.8c-0.6,0-1.2-0.3-1.7-0.7c-0.4-0.4-0.7-1.1-0.7-1.7l0,0c0-0.6,0.3-1.2,0.7-1.7
		c0.4-0.4,1.1-0.7,1.7-0.7h41.8c0.6,0,1.2,0.3,1.7,0.7c0.4,0.4,0.7,1.1,0.7,1.7l0,0c0,0.6-0.3,1.2-0.7,1.7
		C651.7,202,651.1,202.3,650.5,202.3L650.5,202.3z"/>
	<path class="st13" d="M672.1,202.3h-13.5c-0.3,0-0.6-0.1-0.9-0.2c-0.3-0.1-0.6-0.3-0.8-0.5c-0.2-0.2-0.4-0.5-0.5-0.8
		c-0.1-0.3-0.2-0.6-0.2-0.9l0,0c0-0.6,0.3-1.2,0.7-1.7c0.4-0.4,1.1-0.7,1.7-0.7h13.5c0.6,0,1.2,0.3,1.7,0.7c0.4,0.4,0.7,1.1,0.7,1.7
		l0,0c0,0.3-0.1,0.6-0.2,0.9c-0.1,0.3-0.3,0.6-0.5,0.8c-0.2,0.2-0.5,0.4-0.8,0.5S672.4,202.3,672.1,202.3L672.1,202.3z"/>
	<path class="st35" d="M252.3,345.3H137.8c-2.2,0-4.1,1.8-4.1,4.1V409c0,2.2,1.8,4.1,4.1,4.1h114.5c2.2,0,4.1-1.8,4.1-4.1v-59.7
		C256.3,347.1,254.5,345.3,252.3,345.3z"/>
	<path class="st37" d="M138.9,354.5h112.2"/>
	<path class="st4" d="M248.1,351.2c0.8,0,1.4-0.6,1.4-1.4c0-0.8-0.6-1.4-1.4-1.4s-1.4,0.6-1.4,1.4
		C246.8,350.6,247.4,351.2,248.1,351.2z"/>
	<path class="st4" d="M241.1,351.2c0.8,0,1.4-0.6,1.4-1.4c0-0.8-0.6-1.4-1.4-1.4c-0.8,0-1.4,0.6-1.4,1.4
		C239.7,350.6,240.3,351.2,241.1,351.2z"/>
	<path class="st4" d="M234,351.2c0.8,0,1.4-0.6,1.4-1.4c0-0.8-0.6-1.4-1.4-1.4c-0.8,0-1.4,0.6-1.4,1.4
		C232.6,350.6,233.2,351.2,234,351.2z"/>
	<path class="st38" d="M159.8,363.6h-19c-0.5,0-1-0.2-1.3-0.5c-0.4-0.4-0.5-0.8-0.5-1.3c0-0.5,0.2-1,0.5-1.3
		c0.4-0.4,0.8-0.6,1.3-0.6h19c0.5,0,1,0.2,1.3,0.6c0.4,0.4,0.5,0.8,0.5,1.3c0,0.5-0.2,1-0.5,1.3
		C160.8,363.4,160.3,363.6,159.8,363.6L159.8,363.6z"/>
	<path class="st38" d="M159.8,372.3h-19c-0.5,0-1-0.2-1.3-0.5c-0.4-0.4-0.5-0.8-0.5-1.3c0-0.5,0.2-1,0.5-1.3
		c0.4-0.4,0.8-0.5,1.3-0.5h19c0.5,0,1,0.2,1.3,0.5c0.4,0.4,0.5,0.8,0.5,1.3c0,0.5-0.2,1-0.5,1.3
		C160.8,372.1,160.3,372.3,159.8,372.3z"/>
	<path class="st38" d="M159.8,380.9h-19c-0.2,0-0.5,0-0.7-0.1c-0.2-0.1-0.4-0.2-0.6-0.4c-0.2-0.2-0.3-0.4-0.4-0.6
		c-0.1-0.2-0.1-0.5-0.1-0.7c0-0.5,0.2-1,0.5-1.3c0.4-0.4,0.8-0.5,1.3-0.5h19c0.5,0,1,0.2,1.3,0.5c0.4,0.4,0.5,0.8,0.5,1.3
		c0,0.2,0,0.5-0.1,0.7c-0.1,0.2-0.2,0.4-0.4,0.6c-0.2,0.2-0.4,0.3-0.6,0.4C160.3,380.9,160.1,380.9,159.8,380.9z"/>
	<path class="st38" d="M159.8,389.6h-19c-0.5,0-1-0.2-1.3-0.6c-0.4-0.4-0.5-0.8-0.5-1.3c0-0.5,0.2-1,0.5-1.3
		c0.4-0.4,0.8-0.6,1.3-0.6h19c0.5,0,1,0.2,1.3,0.6c0.4,0.4,0.5,0.8,0.5,1.3l0,0c0,0.2,0,0.5-0.1,0.7c-0.1,0.2-0.2,0.4-0.4,0.6
		c-0.2,0.2-0.4,0.3-0.6,0.4S160.1,389.6,159.8,389.6z"/>
	<path class="st38" d="M159.8,398.3h-19c-0.5,0-1-0.2-1.3-0.5c-0.4-0.4-0.5-0.8-0.5-1.3c0-0.5,0.2-1,0.5-1.3
		c0.4-0.4,0.8-0.5,1.3-0.5h19c0.5,0,1,0.2,1.3,0.5c0.4,0.4,0.5,0.8,0.5,1.3c0,0.5-0.2,1-0.5,1.3
		C160.8,398.1,160.3,398.3,159.8,398.3z"/>
	<path class="st38" d="M159.8,406.9h-19c-0.2,0-0.5,0-0.7-0.1c-0.2-0.1-0.4-0.2-0.6-0.4c-0.2-0.2-0.3-0.4-0.4-0.6
		c-0.1-0.2-0.1-0.5-0.1-0.7c0-0.5,0.2-1,0.5-1.3c0.4-0.4,0.8-0.5,1.3-0.5h19c0.5,0,1,0.2,1.3,0.5c0.4,0.4,0.5,0.8,0.5,1.3
		c0,0.2,0,0.5-0.1,0.7c-0.1,0.2-0.2,0.4-0.4,0.6c-0.2,0.2-0.4,0.3-0.6,0.4C160.3,406.9,160.1,406.9,159.8,406.9z"/>
	<path class="st39" d="M249.2,363.6h-82c-0.5,0-1-0.2-1.3-0.5c-0.4-0.4-0.5-0.8-0.5-1.3c0-0.5,0.2-1,0.5-1.3
		c0.4-0.4,0.8-0.6,1.3-0.6h82c0.5,0,1,0.2,1.3,0.5c0.4,0.4,0.5,0.8,0.5,1.3c0,0.2,0,0.5-0.1,0.7c-0.1,0.2-0.2,0.4-0.4,0.6
		c-0.2,0.2-0.4,0.3-0.6,0.4C249.7,363.5,249.5,363.6,249.2,363.6z"/>
	<path class="st39" d="M249.2,372.3h-82c-0.5,0-1-0.2-1.3-0.5c-0.4-0.4-0.5-0.8-0.5-1.3c0-0.5,0.2-1,0.5-1.3
		c0.4-0.4,0.8-0.5,1.3-0.5h82c0.2,0,0.5,0,0.7,0.1c0.2,0.1,0.4,0.2,0.6,0.4c0.2,0.2,0.3,0.4,0.4,0.6c0.1,0.2,0.1,0.5,0.1,0.7l0,0
		c0,0.2,0,0.5-0.1,0.7c-0.1,0.2-0.2,0.4-0.4,0.6c-0.2,0.2-0.4,0.3-0.6,0.4C249.7,372.2,249.5,372.3,249.2,372.3L249.2,372.3z"/>
	<path class="st39" d="M249.2,380.9h-82c-0.2,0-0.5,0-0.7-0.1c-0.2-0.1-0.4-0.2-0.6-0.4c-0.2-0.2-0.3-0.4-0.4-0.6
		c-0.1-0.2-0.1-0.5-0.1-0.7c0-0.5,0.2-1,0.5-1.3c0.4-0.4,0.8-0.5,1.3-0.5h82c0.2,0,0.5,0,0.7,0.1c0.2,0.1,0.4,0.2,0.6,0.4
		c0.2,0.2,0.3,0.4,0.4,0.6c0.1,0.2,0.1,0.5,0.1,0.7c0,0.2,0,0.5-0.1,0.7c-0.1,0.2-0.2,0.4-0.4,0.6c-0.2,0.2-0.4,0.3-0.6,0.4
		C249.7,380.9,249.5,380.9,249.2,380.9z"/>
	<path class="st39" d="M249.2,389.6h-82c-0.5,0-1-0.2-1.3-0.6c-0.4-0.4-0.5-0.8-0.5-1.3c0-0.5,0.2-1,0.5-1.3
		c0.4-0.4,0.8-0.6,1.3-0.6h82c0.5,0,1,0.2,1.3,0.5c0.4,0.4,0.5,0.8,0.5,1.3c0,0.2,0,0.5-0.1,0.7c-0.1,0.2-0.2,0.4-0.4,0.6
		c-0.2,0.2-0.4,0.3-0.6,0.4C249.7,389.6,249.5,389.6,249.2,389.6L249.2,389.6z"/>
	<path class="st39" d="M249.2,398.3h-82c-0.5,0-1-0.2-1.3-0.5c-0.4-0.4-0.5-0.8-0.5-1.3c0-0.5,0.2-1,0.5-1.3
		c0.4-0.4,0.8-0.5,1.3-0.5h82c0.2,0,0.5,0,0.7,0.1s0.4,0.2,0.6,0.4c0.2,0.2,0.3,0.4,0.4,0.6c0.1,0.2,0.1,0.5,0.1,0.7l0,0
		c0,0.2,0,0.5-0.1,0.7c-0.1,0.2-0.2,0.4-0.4,0.6c-0.2,0.2-0.4,0.3-0.6,0.4C249.7,398.2,249.5,398.3,249.2,398.3L249.2,398.3z"/>
	<path class="st39" d="M249.2,406.9h-82c-0.2,0-0.5,0-0.7-0.1c-0.2-0.1-0.4-0.2-0.6-0.4c-0.2-0.2-0.3-0.4-0.4-0.6
		c-0.1-0.2-0.1-0.5-0.1-0.7c0-0.5,0.2-1,0.5-1.3c0.4-0.4,0.8-0.5,1.3-0.5h82c0.2,0,0.5,0,0.7,0.1c0.2,0.1,0.4,0.2,0.6,0.4
		c0.2,0.2,0.3,0.4,0.4,0.6c0.1,0.2,0.1,0.5,0.1,0.7c0,0.2,0,0.5-0.1,0.7c-0.1,0.2-0.2,0.4-0.4,0.6c-0.2,0.2-0.4,0.3-0.6,0.4
		C249.7,406.9,249.5,406.9,249.2,406.9z"/>
	<path class="st40" d="M813.5,70.7c6.5-27.1-10.2-54.3-37.3-60.8c-27.1-6.5-54.3,10.2-60.8,37.3c-6.5,27.1,10.2,54.3,37.3,60.8
		C779.8,114.5,807,97.8,813.5,70.7z"/>
	<path class="st41" d="M782.2,99.1c22.2-9.8,32.2-35.7,22.4-57.9C794.8,19,768.9,9,746.7,18.8c-22.2,9.8-32.2,35.7-22.4,57.9
		C734.1,98.9,760,108.9,782.2,99.1z"/>
	<path class="st4" d="M768.4,59c0,0.8-0.2,1.6-0.7,2.2s-1.1,1.2-1.8,1.5s-1.5,0.4-2.3,0.2c-0.8-0.2-1.5-0.5-2-1.1
		c-0.6-0.6-0.9-1.3-1.1-2c-0.2-0.8-0.1-1.6,0.2-2.3c0.3-0.7,0.8-1.4,1.5-1.8c0.7-0.4,1.4-0.7,2.2-0.7c0.5,0,1,0.1,1.5,0.3
		c0.5,0.2,0.9,0.5,1.3,0.9c0.4,0.4,0.7,0.8,0.9,1.3C768.3,57.9,768.4,58.4,768.4,59L768.4,59z"/>
	<path class="st4" d="M764,58.2c-0.3,0.2-0.6,0.2-0.9,0.1c-0.3-0.1-0.6-0.3-0.7-0.6l-12.9-23.3c-0.2-0.3-0.2-0.6-0.1-0.9
		c0.1-0.3,0.3-0.6,0.6-0.7l0,0c0.3-0.2,0.6-0.2,0.9-0.1c0.3,0.1,0.6,0.3,0.7,0.6l12.9,23.3c0.2,0.3,0.2,0.6,0.1,0.9
		C764.5,57.7,764.3,58,764,58.2L764,58.2z"/>
	<path class="st4" d="M765.1,59.6c0.1-0.1,0.3-0.2,0.4-0.3c0.2-0.1,0.3-0.1,0.5-0.1c0.2,0,0.3,0,0.5,0.1c0.2,0.1,0.3,0.2,0.4,0.3
		L778,70.8c0.2,0.2,0.4,0.6,0.4,0.9c0,0.3-0.1,0.6-0.4,0.9c-0.1,0.1-0.3,0.2-0.4,0.3c-0.2,0.1-0.3,0.1-0.5,0.1c-0.2,0-0.3,0-0.5-0.1
		c-0.2-0.1-0.3-0.2-0.4-0.3l-11.2-11.2c-0.2-0.2-0.4-0.6-0.4-0.9C764.7,60.1,764.8,59.8,765.1,59.6L765.1,59.6z"/>
	<path class="st42" d="M764.7,23.8v-5"/>
	<path class="st42" d="M799.6,59.2h5"/>
	<path class="st42" d="M764.2,94.1v5"/>
	<path class="st42" d="M729.3,58.7h-5"/>
	<g class="st24">
		<path class="st43" d="M747.1,28.4l-2.5-4.4"/>
		<path class="st43" d="M795,41.6l4.4-2.5"/>
		<path class="st43" d="M781.8,89.5l2.5,4.4"/>
		<path class="st43" d="M733.9,76.3l-4.4,2.5"/>
	</g>
	<g class="st24">
		<path class="st43" d="M734.2,41.2l-4.4-2.5"/>
		<path class="st43" d="M782.2,28.7l2.5-4.4"/>
		<path class="st43" d="M794.7,76.8l4.4,2.5"/>
		<path class="st43" d="M746.7,89.2l-2.5,4.4"/>
	</g>
	<path class="st44" d="M169.5,227.8h-64.8c-5.6,0-10.2,4.5-10.2,10.2v64.8c0,5.6,4.5,10.2,10.2,10.2h64.8c5.6,0,10.2-4.5,10.2-10.2
		V238C179.6,232.4,175.1,227.8,169.5,227.8z"/>
	<path class="st45" d="M164.9,220.4H96c-4.5,0-8.1,3.6-8.1,8.1v68.9c0,4.5,3.6,8.1,8.1,8.1h68.9c4.5,0,8.1-3.6,8.1-8.1v-68.9
		C173,224.1,169.4,220.4,164.9,220.4z"/>
	<path class="st4" d="M145.2,253.3h-0.4v-4.9c0-1.9-0.3-3.8-1.1-5.6c-0.7-1.8-1.8-3.4-3.1-4.8c-1.3-1.4-3-2.4-4.7-3.2
		c-1.8-0.7-3.7-1.1-5.6-1.1c-1.9,0-3.8,0.4-5.6,1.1c-1.8,0.7-3.4,1.8-4.7,3.2c-1.3,1.4-2.4,3-3.1,4.8c-0.7,1.8-1.1,3.7-1.1,5.6v4.9
		h-0.1c-1.1,0-2.1,0.4-2.9,1.2s-1.2,1.8-1.2,2.9v18.4c0,0.5,0.1,1.1,0.3,1.6c0.2,0.5,0.5,0.9,0.9,1.3c0.4,0.4,0.8,0.7,1.3,0.9
		c0.5,0.2,1,0.3,1.6,0.3h29.6c1.1,0,2.1-0.4,2.9-1.2c0.8-0.8,1.2-1.8,1.2-2.9v-18.4c0-0.5-0.1-1.1-0.3-1.6c-0.2-0.5-0.5-0.9-0.9-1.3
		c-0.4-0.4-0.8-0.7-1.3-0.9C146.3,253.4,145.7,253.3,145.2,253.3L145.2,253.3z M119.4,248.4c0-1.4,0.3-2.8,0.8-4.1
		c0.5-1.3,1.3-2.5,2.3-3.5c1-1,2.2-1.8,3.5-2.3c1.3-0.5,2.7-0.8,4.1-0.8c1.4,0,2.8,0.3,4.1,0.8c1.3,0.5,2.5,1.3,3.5,2.3
		c1,1,1.8,2.2,2.3,3.5c0.5,1.3,0.8,2.7,0.8,4.1v4.9h-21.7L119.4,248.4z"/>
	<path class="st14" d="M135.2,262.7c0-0.8-0.2-1.6-0.6-2.4c-0.4-0.7-1-1.3-1.7-1.7c-0.7-0.4-1.5-0.6-2.4-0.6c-0.8,0-1.6,0.2-2.4,0.6
		c-0.7,0.4-1.3,1-1.7,1.7c-0.4,0.7-0.6,1.5-0.6,2.4c0,0.8,0.2,1.6,0.6,2.4c0.4,0.7,1,1.3,1.7,1.7c0.2,0.1,0.3,0.2,0.4,0.4
		c0.1,0.2,0.1,0.4,0,0.6l-0.8,3c-0.1,0.4-0.1,0.9,0,1.3c0.1,0.4,0.3,0.8,0.5,1.2c0.3,0.3,0.6,0.6,1,0.8c0.4,0.2,0.8,0.3,1.3,0.3
		c0.4,0,0.9-0.1,1.3-0.3c0.4-0.2,0.7-0.5,1-0.8c0.3-0.3,0.4-0.8,0.5-1.2c0.1-0.4,0.1-0.9,0-1.3l-0.8-3c0-0.2,0-0.4,0.1-0.6
		c0.1-0.2,0.2-0.3,0.4-0.4c0.7-0.4,1.3-1,1.8-1.7C135,264.4,135.2,263.6,135.2,262.7z"/>
	<path class="st1" d="M147.5,286.2h-34.2c-0.2,0-0.5,0-0.7-0.1c-0.2-0.1-0.4-0.2-0.6-0.4c-0.2-0.2-0.3-0.4-0.4-0.6
		c-0.1-0.2-0.1-0.4-0.1-0.7c0-0.2,0-0.5,0.1-0.7c0.1-0.2,0.2-0.4,0.4-0.6c0.2-0.2,0.4-0.3,0.6-0.4c0.2-0.1,0.4-0.1,0.7-0.1h34.2
		c0.5,0,0.9,0.2,1.2,0.5c0.3,0.3,0.5,0.8,0.5,1.2l0,0c0,0.2,0,0.5-0.1,0.7c-0.1,0.2-0.2,0.4-0.4,0.6c-0.2,0.2-0.4,0.3-0.6,0.4
		C148,286.2,147.7,286.2,147.5,286.2L147.5,286.2z"/>
	<path class="st1" d="M147.5,292.2h-34.2c-0.2,0-0.5,0-0.7-0.1c-0.2-0.1-0.4-0.2-0.6-0.4c-0.2-0.2-0.3-0.4-0.4-0.6
		c-0.1-0.2-0.1-0.4-0.1-0.7c0-0.2,0-0.5,0.1-0.7c0.1-0.2,0.2-0.4,0.4-0.6c0.2-0.2,0.4-0.3,0.6-0.4c0.2-0.1,0.4-0.1,0.7-0.1h34.2
		c0.2,0,0.5,0,0.7,0.1c0.2,0.1,0.4,0.2,0.6,0.4c0.2,0.2,0.3,0.4,0.4,0.6c0.1,0.2,0.1,0.4,0.1,0.7l0,0c0,0.5-0.2,0.9-0.5,1.2
		C148.4,292,148,292.2,147.5,292.2z"/>
	<path class="st35" d="M800,362.9h38.2c1.6,0,3.1,0.6,4.2,1.8c1.1,1.1,1.8,2.6,1.8,4.2v38.2c0,0.8-0.2,1.6-0.5,2.3
		c-0.3,0.7-0.7,1.4-1.3,1.9s-1.2,1-1.9,1.3c-0.7,0.3-1.5,0.5-2.3,0.5H800c-1.6,0-3.1-0.6-4.2-1.8c-1.1-1.1-1.8-2.6-1.8-4.2v-38.2
		c0-1.6,0.6-3.1,1.8-4.2C796.9,363.6,798.4,362.9,800,362.9L800,362.9z"/>
	<path class="st14" d="M835.5,358.6h-40.6c-2.6,0-4.8,2.1-4.8,4.8v40.6c0,2.6,2.1,4.8,4.8,4.8h40.6c2.6,0,4.8-2.1,4.8-4.8v-40.6
		C840.3,360.7,838.1,358.6,835.5,358.6z"/>
	<path class="st4" d="M805.1,398.6c-0.1,0-0.3,0-0.4-0.1c-0.4-0.1-0.7-0.4-0.9-0.7c-0.2-0.4-0.3-0.8-0.1-1.2l7.6-26.8
		c0.1-0.2,0.1-0.4,0.3-0.5c0.1-0.2,0.3-0.3,0.5-0.4c0.2-0.1,0.4-0.2,0.6-0.2c0.2,0,0.4,0,0.6,0c0.2,0.1,0.4,0.1,0.5,0.3
		c0.2,0.1,0.3,0.3,0.4,0.5c0.1,0.2,0.2,0.4,0.2,0.6c0,0.2,0,0.4,0,0.6l-7.6,26.8c-0.1,0.3-0.3,0.6-0.6,0.8
		C805.8,398.5,805.4,398.6,805.1,398.6z"/>
	<path class="st4" d="M817.8,398.6c-0.1,0-0.3,0-0.4-0.1c-0.4-0.1-0.7-0.4-0.9-0.7c-0.2-0.4-0.3-0.8-0.1-1.2l7.6-26.8
		c0.1-0.2,0.1-0.4,0.3-0.5c0.1-0.2,0.3-0.3,0.5-0.4c0.2-0.1,0.4-0.2,0.6-0.2c0.2,0,0.4,0,0.6,0c0.2,0.1,0.4,0.1,0.5,0.3
		c0.2,0.1,0.3,0.3,0.4,0.5c0.1,0.2,0.2,0.4,0.2,0.6c0,0.2,0,0.4,0,0.6l-7.6,26.8c-0.1,0.3-0.3,0.6-0.6,0.8
		C818.4,398.5,818.1,398.6,817.8,398.6L817.8,398.6z"/>
	<path class="st4" d="M828.6,379.1h-26.8c-0.2,0-0.4,0-0.6-0.1c-0.2-0.1-0.4-0.2-0.5-0.3c-0.1-0.1-0.3-0.3-0.3-0.5
		c-0.1-0.2-0.1-0.4-0.1-0.6c0-0.2,0-0.4,0.1-0.6c0.1-0.2,0.2-0.4,0.3-0.5c0.1-0.1,0.3-0.3,0.5-0.3c0.2-0.1,0.4-0.1,0.6-0.1h26.8
		c0.2,0,0.4,0,0.6,0.1c0.2,0.1,0.4,0.2,0.5,0.3c0.1,0.1,0.3,0.3,0.3,0.5c0.1,0.2,0.1,0.4,0.1,0.6c0,0.2,0,0.4-0.1,0.6
		s-0.2,0.4-0.3,0.5c-0.1,0.1-0.3,0.3-0.5,0.3C829.1,379.1,828.8,379.1,828.6,379.1z"/>
	<path class="st4" d="M828.6,391.4h-26.8c-0.2,0-0.4,0-0.6-0.1c-0.2-0.1-0.4-0.2-0.5-0.3c-0.1-0.1-0.3-0.3-0.3-0.5
		c-0.1-0.2-0.1-0.4-0.1-0.6c0-0.2,0-0.4,0.1-0.6c0.1-0.2,0.2-0.4,0.3-0.5c0.1-0.1,0.3-0.3,0.5-0.3c0.2-0.1,0.4-0.1,0.6-0.1h26.8
		c0.2,0,0.4,0,0.6,0.1c0.2,0.1,0.4,0.2,0.5,0.3c0.1,0.1,0.3,0.3,0.3,0.5c0.1,0.2,0.1,0.4,0.1,0.6c0,0.2,0,0.4-0.1,0.6
		s-0.2,0.4-0.3,0.5c-0.1,0.1-0.3,0.3-0.5,0.3C829.1,391.3,828.8,391.4,828.6,391.4L828.6,391.4z"/>
	<path class="st13" d="M230.3,253.8h-19.4c-0.3,0-0.6-0.1-0.8-0.2c-0.3-0.1-0.5-0.3-0.7-0.5c-0.2-0.2-0.4-0.4-0.5-0.7
		c-0.1-0.3-0.2-0.5-0.2-0.8l0,0c0-0.6,0.2-1.1,0.6-1.5c0.4-0.4,0.9-0.6,1.5-0.6h19.4c0.6,0,1.1,0.2,1.5,0.6c0.4,0.4,0.6,0.9,0.6,1.5
		c0,0.3-0.1,0.6-0.2,0.8c-0.1,0.3-0.3,0.5-0.5,0.7c-0.2,0.2-0.4,0.4-0.7,0.5C230.9,253.8,230.6,253.8,230.3,253.8L230.3,253.8z"/>
	<path class="st13" d="M249.9,263.3h-39c-0.3,0-0.6-0.1-0.8-0.2c-0.3-0.1-0.5-0.3-0.7-0.5c-0.2-0.2-0.4-0.4-0.5-0.7
		c-0.1-0.3-0.2-0.5-0.2-0.8c0-0.6,0.2-1.1,0.6-1.5c0.4-0.4,0.9-0.6,1.5-0.6h39c0.3,0,0.6,0.1,0.8,0.2c0.3,0.1,0.5,0.3,0.7,0.5
		s0.4,0.4,0.5,0.7c0.1,0.3,0.2,0.5,0.2,0.8c0,0.3-0.1,0.6-0.2,0.8c-0.1,0.3-0.3,0.5-0.5,0.7c-0.2,0.2-0.4,0.4-0.7,0.5
		C250.4,263.2,250.1,263.3,249.9,263.3z"/>
	<path class="st13" d="M215.5,272.7h-4.6c-0.3,0-0.6-0.1-0.8-0.2c-0.3-0.1-0.5-0.3-0.7-0.5c-0.2-0.2-0.4-0.4-0.5-0.7
		c-0.1-0.3-0.2-0.5-0.2-0.8l0,0c0-0.3,0.1-0.6,0.2-0.8c0.1-0.3,0.3-0.5,0.5-0.7c0.2-0.2,0.4-0.4,0.7-0.5c0.3-0.1,0.5-0.2,0.8-0.2
		h4.6c0.3,0,0.6,0.1,0.8,0.2c0.3,0.1,0.5,0.3,0.7,0.5c0.2,0.2,0.4,0.4,0.5,0.7c0.1,0.3,0.2,0.5,0.2,0.8l0,0c0,0.6-0.2,1.1-0.6,1.5
		C216.6,272.5,216.1,272.7,215.5,272.7L215.5,272.7z"/>
	<path class="st13" d="M249.9,272.7h-27.1c-0.3,0-0.6-0.1-0.8-0.2c-0.3-0.1-0.5-0.3-0.7-0.5c-0.2-0.2-0.4-0.4-0.5-0.7
		c-0.1-0.3-0.2-0.5-0.2-0.8l0,0c0-0.3,0.1-0.6,0.2-0.8c0.1-0.3,0.3-0.5,0.5-0.7c0.2-0.2,0.4-0.4,0.7-0.5s0.5-0.2,0.8-0.2h27.1
		c0.3,0,0.6,0.1,0.8,0.2c0.3,0.1,0.5,0.3,0.7,0.5c0.2,0.2,0.4,0.4,0.5,0.7c0.1,0.3,0.2,0.5,0.2,0.8l0,0c0,0.3-0.1,0.6-0.2,0.8
		c-0.1,0.3-0.3,0.5-0.5,0.7c-0.2,0.2-0.4,0.4-0.7,0.5C250.4,272.7,250.1,272.7,249.9,272.7L249.9,272.7z"/>
	<path class="st13" d="M249.9,253.8h-11.8c-0.6,0-1.1-0.2-1.5-0.6c-0.4-0.4-0.6-0.9-0.6-1.5l0,0c0-0.6,0.2-1.1,0.6-1.5
		c0.4-0.4,0.9-0.6,1.5-0.6h11.8c0.6,0,1.1,0.2,1.5,0.6c0.4,0.4,0.6,0.9,0.6,1.5c0,0.3-0.1,0.6-0.2,0.8c-0.1,0.3-0.3,0.5-0.5,0.7
		c-0.2,0.2-0.4,0.4-0.7,0.5C250.4,253.8,250.1,253.8,249.9,253.8L249.9,253.8z"/>
	<path class="st1" d="M86.7,485.9c-0.4-2-0.3-4.1,0.2-6.1c2.8-10.8,2.6-22.2-0.7-32.8c-7.3-22.6-36.7-42.7-36.7-42.7
		s8,33.4,14.5,47.7c4.8,10.4,13.2,22.3,17.9,28.5c1.3,1.7,2.2,3.7,2.6,5.9c2.9,15.5,4.2,31.2,4.1,47l2.2,0.1
		C90.9,517.4,89.6,501.5,86.7,485.9L86.7,485.9z"/>
	<path class="st46" d="M110.1,464.6c5.8-18.5,8.6-40.2,8.6-40.2S92.3,446.1,90.2,463c-1.1,7.9-0.4,15.8,1.8,23.4
		c0.6,2.1,0.8,4.2,0.6,6.4c-1.6,14.6-1.8,29.4-0.5,44l2-0.2c-1.2-13.8-1.1-27.6,0.3-41.3c0.3-3.2,1.6-6.2,3.6-8.7
		C103.3,480,107.4,472.6,110.1,464.6z"/>
	<path class="st1" d="M136.9,423.5c0,0-28.4,10.5-35.8,33.7c-3.4,11-3.6,22.8-0.6,33.9c0.5,1.9,0.5,3.9,0,5.8
		c-6.7,26.7-6.8,54.3-6.8,54.7H96c0-0.4,0.1-27.3,6.5-53.5c0.6-2.6,1.8-5,3.4-7.2c4.8-6.5,13.1-18.3,17.9-28.6
		C130.4,447.8,136.9,423.5,136.9,423.5z"/>
	<path class="st46" d="M86.8,521.4c-0.7-8.9-2.9-17.6-6.6-25.8c-0.6-1.5-0.9-3.1-0.7-4.7c0.5-4.6,0.3-9.3-0.7-13.9
		c-2.3-11.4-17.4-36-39.3-37.4c0,0,7.5,12.1,11.4,22.3c4.9,12.8,11.9,26.3,23.6,31.4c2,0.9,3.7,2.6,4.5,4.7
		c3.1,7.5,5.1,15.4,5.7,23.5L86.8,521.4z"/>
	<path class="st1" d="M72,571.2h36.1l9.4-57.2c0.1-0.6,0.1-1.2-0.1-1.8c-0.2-0.6-0.4-1.1-0.8-1.6c-0.4-0.5-0.9-0.8-1.4-1.1
		c-0.5-0.3-1.1-0.4-1.7-0.4H66.8c-0.6,0-1.2,0.1-1.7,0.4c-0.5,0.3-1,0.6-1.4,1.1c-0.4,0.5-0.7,1-0.8,1.6c-0.2,0.6-0.2,1.2-0.1,1.8
		L72,571.2z"/>
	<path class="st47" d="M235.2,182.2c24,0,43.5-19.5,43.5-43.5c0-24-19.5-43.5-43.5-43.5s-43.5,19.5-43.5,43.5
		C191.8,162.7,211.2,182.2,235.2,182.2z"/>
	<path class="st48" d="M231,175.8c24,0,43.5-19.5,43.5-43.5c0-24-19.5-43.5-43.5-43.5s-43.5,19.5-43.5,43.5
		C187.5,156.4,207,175.8,231,175.8z"/>
	<path class="st49" d="M231,175.3c23.7,0,43-19.2,43-43c0-23.7-19.2-43-43-43s-43,19.2-43,43C188,156.1,207.3,175.3,231,175.3z"/>
	<path class="st50" d="M247.8,151.2v3.5h6.4c1,0,1.9-0.4,2.6-1.1s1.1-1.6,1.1-2.6v-1.4c0-0.5-0.1-0.9-0.3-1.4
		c-0.2-0.4-0.4-0.8-0.8-1.2c-0.3-0.3-0.7-0.6-1.2-0.8c-0.4-0.2-0.9-0.3-1.4-0.3H251v-1.6h6.3V141h-6c-1,0-1.9,0.4-2.6,1.1
		c-0.7,0.7-1.1,1.6-1.1,2.6v1.2c0,1,0.4,1.9,1.1,2.6c0.7,0.7,1.6,1.1,2.6,1.1c4.4,0-1.1,0,3,0v1.7L247.8,151.2z M213.7,150.4
		c0,0,3.4-0.3,3.4-4.7c0-1.2-0.4-2.3-1.1-3.2c-0.8-0.9-1.8-1.5-3-1.6h-7.4v13.9h3.7v-3.3l3.2,3.3h5.5L213.7,150.4z M212.3,147.6h-3
		v-3.2h3c0.3,0.1,0.5,0.4,0.7,0.7c0.1,0.3,0.2,0.6,0.2,0.9c0,0.3,0,0.6-0.2,0.9C212.8,147.2,212.6,147.4,212.3,147.6L212.3,147.6z
		 M226.3,141h-3.8c-1,0-1.9,0.4-2.5,1.1c-0.7,0.7-1.1,1.6-1.1,2.5v10.1h3.8v-2.4h3.6v2.4h3.7v-10.1c0-0.5-0.1-0.9-0.3-1.4
		c-0.2-0.4-0.4-0.8-0.8-1.2c-0.3-0.3-0.7-0.6-1.2-0.8C227.3,141.1,226.8,141,226.3,141L226.3,141z M226.3,148.4h-3.6V145
		c0,0,0-0.8,1.2-0.8h1.3c1.1,0,1.1,0.8,1.1,0.8L226.3,148.4L226.3,148.4z M231.7,141h3.9v13.8h-3.9V141z M237.2,141v13.8h9.2v-3.6
		h-5.3V141H237.2z"/>
	<path class="st50" d="M205.6,135.1h18.8c0,0-3.6-16.4,8.3-23c2.6-1.3,10.8-6,24.3,4c0.4-0.4,0.8-0.6,0.8-0.6s-12.3-12.3-26.1-10.9
		c-6.9,0.6-15.4,6.9-20.4,15.2C208.4,124.5,206.4,129.7,205.6,135.1L205.6,135.1z"/>
	<path class="st50" d="M205.6,135.1h18.8c0,0-3.6-16.4,8.3-23c2.6-1.3,10.8-6,24.3,4c0.4-0.4,0.8-0.6,0.8-0.6s-12.3-12.3-26.1-10.9
		c-6.9,0.6-15.4,6.9-20.4,15.2C208.4,124.5,206.4,129.7,205.6,135.1L205.6,135.1z"/>
	<path class="st50" d="M205.6,135.1h18.8c0,0-3.6-16.4,8.3-23c2.6-1.3,10.8-6,24.3,4c0.4-0.4,0.8-0.6,0.8-0.6s-12.3-12.3-26.1-10.9
		c-6.9,0.6-15.4,6.9-20.4,15.2C208.3,124.5,206.4,129.7,205.6,135.1L205.6,135.1z M244.7,105.9l0.1-1.6c-0.7-0.4-1.5-0.6-2.3-0.8
		l-0.1,1.6C243.1,105.3,243.9,105.6,244.7,105.9z"/>
	<path class="st50" d="M242.4,110.9l-0.1,1.5c0.8,0,1.6,0.1,2.3,0.3l0.1-1.5C244,111.1,243.2,111,242.4,110.9L242.4,110.9z
		 M233.6,103.5h0.2l-0.5-1.4c-0.8,0-1.5,0-2.3,0.1l0.5,1.4C232.2,103.6,232.9,103.5,233.6,103.5L233.6,103.5z M234.8,112.3l0.5,1.6
		c0.7-0.3,1.4-0.6,2.1-0.8l-0.5-1.6C236.1,111.7,235.4,112,234.8,112.3L234.8,112.3z M224,106l-1.1-1.6c-0.6,0.3-1.2,0.6-1.9,1
		l1.1,1.7C222.8,106.7,223.4,106.3,224,106L224,106z M228.8,116.7l1.1,1.7c0.4-0.6,0.9-1.2,1.4-1.7l-1.1-1.6
		C229.8,115.6,229.3,116.1,228.8,116.7L228.8,116.7z M225.4,124.3l1.9,1.5c0.1-0.9,0.3-1.9,0.5-2.8l-1.7-1.4
		C225.8,122.6,225.6,123.5,225.4,124.3L225.4,124.3z M215,113.1l-1.7-1.5c-0.6,0.6-1.2,1.2-1.8,1.8l1.8,1.6
		C213.9,114.3,214.4,113.7,215,113.1L215,113.1z M207.8,123.7l-2.7-1c-0.5,1-0.9,2.2-1.2,2.9l2.7,1
		C207,125.7,207.5,124.6,207.8,123.7L207.8,123.7z M225,130.4c0,1,0.1,2,0.3,3l2.8,1c-0.2-1-0.4-2-0.6-3.1L225,130.4z"/>
</g>
</svg>
